<?xml version="1.0" standalone="no"?>
<!DOCTYPE svg PUBLIC "-//W3C//DTD SVG 20010904//EN"
 "http://www.w3.org/TR/2001/REC-SVG-20010904/DTD/svg10.dtd">
<svg version="1.0" xmlns="http://www.w3.org/2000/svg"
 width="1024.000000pt" height="1024.000000pt" viewBox="0 0 1024.000000 1024.000000"
 preserveAspectRatio="xMidYMid meet">
<metadata>
Created by potrace 1.14, written by Peter Selinger 2001-2017
</metadata>
<g transform="translate(0.000000,1024.000000) scale(0.100000,-0.100000)"
fill="#000000" stroke="none">
<path d="M0 5120 l0 -5120 5120 0 5120 0 0 5120 0 5120 -5120 0 -5120 0 0
-5120z m5401 3351 c18 -23 19 -53 17 -1065 -1 -572 -4 -1014 -7 -981 -4 36 -9
52 -12 40 -4 -11 -4 -5 -2 14 4 31 3 33 -11 22 -14 -11 -16 -11 -16 3 0 22
-27 49 -39 41 -5 -3 -12 -1 -16 5 -10 17 -140 13 -155 -5 -7 -8 -19 -15 -26
-15 -8 0 -14 -4 -14 -10 0 -5 -5 -10 -12 -10 -6 0 -19 -7 -29 -16 -10 -9 -37
-16 -68 -16 -29 -1 -51 -6 -51 -12 0 -22 -20 20 -20 43 0 13 -2 22 -5 19 -3
-3 -9 -63 -14 -134 -5 -81 -9 276 -10 953 -1 777 2 1089 10 1107 19 42 42 45
257 43 201 -2 204 -2 223 -26z m-880 -131 c21 0 49 -42 49 -73 0 -61 -33 -86
-135 -102 -57 -9 -312 -90 -427 -136 -319 -127 -696 -365 -947 -598 -24 -23
-47 -39 -51 -36 -4 3 -7 -3 -6 -13 1 -11 -6 -17 -19 -17 -11 0 -20 -5 -21 -10
-2 -25 -18 -46 -31 -41 -8 3 -11 1 -8 -5 4 -5 -26 -44 -67 -86 -105 -109 -105
-110 -117 -131 -14 -27 -54 -18 -46 9 5 15 3 17 -11 12 -13 -5 -12 -1 5 16 12
12 26 19 30 16 5 -2 12 2 15 11 5 12 2 15 -11 10 -11 -5 -23 0 -33 14 -9 12
-24 22 -33 24 -10 1 -17 5 -17 9 0 4 0 12 0 19 0 6 6 3 14 -7 12 -17 15 -17
29 -3 16 15 13 28 -5 28 -5 0 -6 -4 -3 -10 3 -5 1 -10 -4 -10 -21 0 -10 21 42
79 28 33 57 58 64 56 7 -2 10 2 7 9 -7 19 216 228 376 353 287 223 668 425
1005 533 144 46 318 90 333 85 8 -3 18 -5 23 -5z m1343 -16 c260 -66 536 -175
791 -313 119 -64 372 -230 420 -276 19 -18 35 -30 35 -28 0 3 25 -17 55 -42
30 -26 52 -51 49 -56 -3 -5 1 -6 8 -4 18 7 84 -60 69 -69 -6 -4 -11 -13 -11
-19 0 -7 5 -4 11 6 15 26 30 21 23 -8 -4 -16 -2 -25 6 -25 7 0 10 7 6 15 -10
27 9 16 59 -35 27 -27 44 -50 38 -50 -6 0 -17 10 -25 22 -13 19 -18 21 -31 10
-21 -18 -50 -8 -62 20 -12 27 -44 30 -67 6 -16 -16 -16 -18 -2 -18 9 0 14 -6
11 -12 -2 -7 -12 -12 -22 -11 -13 1 -11 -5 11 -28 15 -16 23 -29 17 -29 -6 0
-29 20 -52 45 -23 25 -44 45 -48 45 -3 0 -27 19 -53 43 -54 49 -105 87 -212
161 -43 29 -76 56 -73 59 3 4 2 5 -1 3 -3 -3 -57 27 -120 65 -268 163 -526
272 -839 353 -111 29 -145 55 -145 107 0 34 41 79 73 79 10 0 47 -7 81 -16z
m486 -850 c0 -3 -11 -20 -25 -38 l-25 -33 0 -421 c0 -270 -4 -423 -10 -427 -5
-3 -11 -18 -12 -33 -1 -15 -4 2 -8 38 l-7 65 -1 -54 c-2 -57 -15 -65 -15 -9 0
18 -2 25 -4 16 -3 -10 -13 -18 -24 -18 -20 0 -59 -33 -59 -50 0 -5 -22 -10
-50 -10 -27 0 -50 -3 -50 -7 0 -5 -12 -14 -27 -20 -21 -10 -28 -10 -34 -1 -6
9 -20 0 -47 -28 l-39 -40 -16 36 c-12 25 -16 29 -16 14 -1 -11 -7 -32 -13 -46
l-13 -26 -11 44 c-7 28 -12 210 -13 521 -2 408 0 481 13 498 13 19 29 20 248
25 128 3 239 7 246 8 6 1 12 -1 12 -4z m926 -46 c4 -7 3 -8 -4 -4 -7 4 -12 3
-12 -3 0 -5 5 -13 10 -16 6 -3 10 -11 10 -17 0 -5 -9 0 -19 13 -19 23 -19 39
-1 39 5 0 12 -5 16 -12z m114 8 c0 -3 -4 -8 -10 -11 -5 -3 -10 -1 -10 4 0 6 5
11 10 11 6 0 10 -2 10 -4z m54 -52 c3 -8 2 -12 -4 -9 -6 3 -10 10 -10 16 0 14
7 11 14 -7z m27 -1 c13 -16 12 -17 -3 -4 -10 7 -18 15 -18 17 0 8 8 3 21 -13z
m-163 -29 c5 3 20 -7 33 -22 l24 -27 -26 23 c-17 15 -28 19 -31 12 -2 -7 -12
-2 -23 12 -14 16 -15 19 -3 9 9 -7 21 -10 26 -7z m-2697 -31 c-5 -10 -25 -34
-45 -52 l-36 -35 0 -330 c0 -343 -8 -527 -21 -471 -6 27 -7 26 -8 -12 -1 -44
-15 -55 -40 -30 -10 10 -16 8 -28 -10 -11 -16 -25 -23 -49 -23 -18 0 -46 -5
-61 -11 -48 -19 -78 -34 -83 -40 -3 -3 -32 -20 -64 -37 -55 -30 -61 -31 -77
-16 -17 15 -18 14 -23 -18 -3 -18 -7 -49 -9 -68 -2 -19 -5 225 -5 543 l-2 578
26 24 27 25 254 0 c239 0 253 -1 244 -17z m-1975 -155 c3 -34 -18 -54 -36 -33
-7 8 -17 12 -24 8 -6 -4 -5 1 2 9 8 10 20 14 30 11 14 -6 15 -4 5 9 -7 8 -10
18 -6 22 13 12 26 0 29 -26z m-66 -42 c0 -2 -8 -10 -17 -17 -16 -13 -17 -12
-4 4 13 16 21 21 21 13z m945 -41 l25 -24 -2 -438 c-1 -241 -3 -417 -5 -390
-2 26 -8 45 -12 43 -4 -3 -19 6 -31 19 -13 14 -29 25 -37 25 -7 0 -13 5 -13
11 0 7 -17 9 -47 6 -79 -9 -113 -19 -113 -32 0 -11 -80 -33 -147 -39 -12 -2
-29 -8 -37 -15 -12 -10 -19 -11 -29 -2 -19 15 -27 4 -28 -38 l-1 -36 -9 33
c-6 18 -8 208 -7 448 l3 415 25 19 c23 18 43 20 233 20 208 0 208 0 232 -25z
m3744 0 c14 -14 16 -57 19 -319 3 -295 2 -305 -19 -340 -22 -37 -39 -47 -39
-21 0 8 -20 24 -44 36 l-44 20 -40 -20 c-21 -11 -48 -18 -59 -15 -11 3 -27 -1
-36 -10 -8 -9 -23 -16 -33 -16 -9 0 -25 -10 -35 -21 -11 -12 -25 -19 -34 -15
-8 3 -15 1 -15 -3 0 -16 -82 -25 -91 -10 -6 10 -9 7 -10 -11 -1 -18 -4 -13
-14 20 -13 45 -13 45 -14 11 -1 -19 -3 -32 -6 -29 -3 3 -9 163 -12 356 l-6
351 32 31 31 31 226 -5 c190 -4 230 -7 243 -21z m-4719 1 c0 -2 -8 -10 -17
-17 -16 -13 -17 -12 -4 4 13 16 21 21 21 13z m14 -32 c3 -8 2 -12 -4 -9 -6 3
-10 10 -10 16 0 14 7 11 14 -7z m127 -27 l-34 -32 29 37 c15 20 30 35 33 32 3
-2 -10 -19 -28 -37z m-11 19 c0 -2 -7 -7 -16 -10 -8 -3 -12 -2 -9 4 6 10 25
14 25 6z m4891 -533 c-8 -17 1 -18 137 -17 81 1 129 0 108 -3 -28 -3 -36 -7
-26 -13 17 -10 14 -11 -60 -28 l-45 -11 41 2 c28 2 41 -2 41 -11 0 -9 -16 -12
-59 -11 -32 1 -61 -1 -65 -5 -11 -11 20 -26 40 -20 24 7 22 -13 -3 -26 -15 -8
-20 -8 -21 2 0 7 -5 -2 -10 -19 -14 -48 -26 -40 -40 25 -10 52 -12 55 -21 32
-5 -14 -7 -54 -5 -90 4 -45 3 -54 -2 -30 l-8 35 -3 -40 -3 -40 -8 45 c-4 25
-7 61 -7 80 1 32 2 31 8 -10 7 -42 7 -43 9 -10 1 19 4 46 8 59 4 16 2 22 -4
18 -14 -9 -23 62 -11 86 5 9 11 17 14 17 2 0 0 -8 -5 -17z m-2184 -55 c-3 -8
-6 -5 -6 6 -1 11 2 17 5 13 3 -3 4 -12 1 -19z m-2690 -36 l-46 -47 -5 -187
c-2 -103 -9 -195 -15 -205 -10 -17 -10 -17 -11 0 0 20 -16 23 -23 5 -4 -10 -8
-9 -16 2 -9 13 -11 11 -11 -6 0 -17 -8 -23 -36 -28 -19 -4 -38 -14 -41 -22 -3
-7 -15 -14 -27 -14 -12 0 -31 -6 -42 -14 -11 -8 -38 -18 -60 -22 -51 -9 -90
-34 -72 -45 9 -6 4 -9 -14 -9 -15 0 -30 -5 -34 -11 -5 -8 -8 -8 -13 0 -5 7
-15 4 -30 -10 -12 -12 -24 -19 -26 -17 -2 2 -5 144 -7 315 l-3 311 24 26 24
26 266 0 265 0 -47 -48z m2697 -737 c184 -41 335 -104 483 -200 108 -71 226
-173 219 -191 -3 -8 0 -11 8 -8 15 6 98 -85 89 -99 -3 -4 -14 -1 -24 9 -11 10
-19 12 -19 6 0 -7 -8 -12 -17 -12 -15 1 -14 4 6 21 13 11 22 22 19 24 -8 9
-80 -64 -73 -75 3 -6 -4 -10 -17 -10 -18 0 -20 -2 -8 -10 12 -8 12 -10 -5 -10
-17 0 -17 -2 -5 -10 9 -6 10 -10 3 -10 -6 0 -14 -15 -16 -32 -3 -28 -4 -26 -6
12 -2 25 -5 40 -7 33 -3 -7 -13 -10 -22 -7 -15 5 -15 4 1 -6 10 -6 17 -23 17
-40 0 -17 5 -30 11 -30 5 0 7 -5 3 -12 -6 -9 -9 -9 -12 0 -2 7 -16 11 -30 11
-17 -1 -21 -3 -9 -6 9 -2 17 -8 17 -13 0 -5 3 -16 6 -24 4 -12 2 -15 -9 -10
-8 3 -18 1 -22 -5 -3 -6 -1 -11 6 -11 7 0 4 -6 -7 -14 -21 -16 -15 -21 36 -29
14 -2 1 -5 -29 -6 -46 -1 -52 -3 -41 -16 10 -12 9 -15 -4 -15 -10 0 -14 -5
-11 -10 4 -6 11 -7 17 -4 17 11 -9 -32 -42 -67 -16 -18 -27 -36 -24 -41 3 -4
-2 -11 -11 -14 -9 -4 -14 -13 -11 -20 3 -8 0 -14 -7 -14 -7 0 -25 -13 -40 -30
-16 -16 -35 -30 -42 -30 -7 0 -20 -11 -29 -25 -9 -14 -26 -25 -37 -25 -11 0
-30 -11 -43 -25 -13 -14 -28 -25 -35 -25 -6 0 -11 -6 -11 -13 0 -8 -18 -22
-40 -32 -22 -10 -40 -22 -40 -27 0 -4 -6 -8 -13 -8 -7 0 -31 -18 -52 -40 -21
-22 -44 -40 -51 -40 -7 0 -14 -6 -17 -14 -3 -8 -27 -22 -54 -32 -26 -10 -50
-20 -53 -23 -16 -18 -125 -71 -146 -71 -8 0 -14 -4 -14 -9 0 -5 -8 -12 -17
-15 -33 -13 -63 -31 -63 -38 0 -5 -6 -8 -14 -8 -8 0 -21 -6 -28 -13 -7 -7 -31
-21 -53 -31 -78 -34 -110 -51 -113 -58 -2 -5 -16 -8 -32 -8 -15 0 -33 -7 -40
-15 -7 -8 -19 -15 -26 -15 -8 0 -14 -4 -14 -9 0 -5 -11 -12 -25 -15 -14 -4
-25 -11 -25 -16 0 -6 -13 -10 -29 -10 -17 0 -33 -4 -36 -10 -7 -12 -92 -50
-111 -50 -8 0 -14 -9 -14 -20 0 -13 -7 -20 -20 -20 -11 0 -20 -4 -20 -10 0 -5
-6 -10 -12 -10 -7 0 -24 -9 -38 -20 -14 -11 -35 -20 -47 -20 -13 0 -23 -3 -23
-8 0 -4 -15 -13 -32 -21 -18 -8 -45 -22 -60 -33 -14 -10 -36 -18 -47 -18 -12
0 -21 -4 -21 -10 0 -5 -6 -10 -13 -10 -7 0 -23 -9 -35 -20 -16 -15 -35 -20
-76 -20 -30 0 -57 4 -60 8 -3 5 -19 7 -37 4 -19 -3 -34 0 -39 9 -6 9 -11 5
-16 -15 -7 -30 36 -142 51 -128 5 4 5 2 1 -5 -3 -6 3 -29 15 -50 l21 -38 -31
35 c-40 45 -133 233 -166 333 -46 146 -59 238 -60 432 0 192 10 264 62 435
110 366 387 686 736 850 125 59 273 106 392 125 113 18 380 13 479 -10z
m-1889 -90 c152 -23 364 -93 350 -115 -3 -5 0 -8 7 -5 7 3 28 -4 46 -15 39
-24 42 -16 -52 -126 -112 -131 -244 -353 -278 -467 -8 -27 -14 -34 -21 -25 -6
9 -7 8 -3 -5 3 -11 -5 -56 -18 -100 -14 -45 -28 -99 -32 -119 -3 -23 -12 -38
-20 -38 -8 0 -14 -11 -15 -27 -1 -26 -1 -27 -7 -5 -9 29 -24 31 -37 6 -5 -11
-18 -18 -27 -16 -12 2 -22 -8 -32 -33 -9 -20 -25 -39 -36 -42 -11 -3 -20 -9
-20 -14 0 -5 -7 -9 -16 -9 -8 0 -32 -17 -52 -38 -20 -21 -51 -44 -69 -51 -18
-7 -46 -26 -63 -42 -16 -16 -37 -29 -45 -29 -8 0 -15 -4 -15 -10 0 -5 -7 -10
-15 -10 -16 0 -51 -18 -71 -36 -7 -6 -26 -17 -43 -24 -17 -7 -31 -18 -31 -24
0 -7 -18 -23 -40 -36 -22 -14 -40 -28 -40 -32 0 -5 -9 -8 -20 -8 -11 0 -20 -4
-20 -10 0 -5 -9 -10 -20 -10 -11 0 -20 -4 -20 -8 0 -5 -18 -17 -40 -27 -22
-10 -40 -24 -40 -32 0 -7 -10 -13 -23 -13 -13 0 -32 -8 -43 -17 -10 -10 -31
-24 -46 -32 -16 -8 -28 -18 -28 -23 0 -4 -9 -8 -20 -8 -11 0 -20 -4 -20 -9 0
-5 -13 -14 -30 -20 -16 -5 -30 -17 -30 -25 0 -9 -4 -17 -10 -17 -5 -1 -14 -3
-20 -4 -5 -1 -20 -4 -32 -5 -19 -2 -20 -3 -5 -7 18 -4 17 -6 -4 -29 -12 -13
-28 -24 -36 -24 -7 0 -13 -5 -13 -11 0 -5 -4 -7 -10 -4 -6 3 -7 -1 -4 -9 4
-11 0 -16 -10 -16 -9 0 -19 -7 -23 -16 -4 -12 -9 -10 -24 13 -11 15 -19 24
-19 20 0 -14 50 -140 76 -188 40 -77 27 -69 -30 18 -79 122 -142 277 -178 442
-29 130 -31 387 -5 511 89 422 340 756 702 935 237 117 489 158 740 120z
m3705 -19 c167 -38 250 -74 401 -172 71 -46 159 -118 173 -142 6 -10 5 -13 -3
-8 -15 10 -14 -27 1 -42 9 -9 9 -12 1 -12 -7 0 -14 -12 -16 -27 -3 -21 -4 -19
-3 7 1 44 -24 48 -35 7 -10 -36 6 -81 25 -74 17 7 15 -18 -2 -35 -9 -9 -13 -6
-20 12 l-9 24 -5 -22 c-4 -12 -3 -20 0 -18 4 2 13 -2 19 -9 10 -11 9 -15 -7
-20 -11 -3 -24 -3 -30 0 -5 3 -10 1 -10 -4 0 -6 7 -11 15 -11 8 0 15 -3 15 -7
-1 -27 -15 -52 -36 -62 -13 -6 -24 -17 -24 -26 0 -8 -4 -15 -8 -15 -4 0 -14
-16 -21 -36 -7 -19 -15 -33 -18 -30 -11 11 -72 -35 -148 -112 -48 -49 -84 -77
-98 -77 -14 0 -26 -10 -35 -27 -7 -16 -18 -28 -24 -28 -5 0 -18 -10 -28 -23
-10 -13 -53 -40 -94 -61 -42 -21 -76 -43 -76 -48 0 -15 -27 -38 -46 -38 -9 0
-44 -20 -78 -44 -33 -24 -77 -51 -96 -61 -19 -10 -38 -23 -42 -29 -9 -14 -41
-14 -50 -1 -4 6 -8 -8 -9 -30 -1 -22 -5 19 -9 91 -14 245 -66 446 -165 645
-71 142 -122 221 -219 337 -43 52 -74 98 -70 102 23 22 180 92 250 111 202 56
436 61 634 15z m595 -344 c-3 -3 1 -12 8 -20 11 -13 9 -14 -10 -1 -27 16 -29
26 -8 26 8 0 13 -3 10 -5z m-58 -89 c-2 -16 -4 -5 -4 22 0 28 2 40 4 28 2 -13
2 -35 0 -50z m-1517 22 c7 -9 8 -15 2 -15 -5 0 -12 7 -16 15 -3 8 -4 15 -2 15
2 0 9 -7 16 -15z m-143 -47 c-3 -8 -6 -5 -6 6 -1 11 2 17 5 13 3 -3 4 -12 1
-19z m-30 -50 c-3 -7 -5 -2 -5 12 0 14 2 19 5 13 2 -7 2 -19 0 -25z m1674 -79
c-5 -13 -10 -19 -10 -12 -1 15 10 45 15 40 3 -2 0 -15 -5 -28z m-4244 -471
c-3 -7 -5 -2 -5 12 0 14 2 19 5 13 2 -7 2 -19 0 -25z m-1682 -90 c-4 -29 -8
-58 -10 -64 -3 -9 -59 -11 -195 -11 l-191 2 6 25 c3 14 17 42 31 63 l24 37
170 0 171 0 -6 -52z m1652 30 c-3 -8 -6 -5 -6 6 -1 11 2 17 5 13 3 -3 4 -12 1
-19z m5385 -33 c15 -27 28 -56 28 -62 0 -10 -47 -13 -204 -13 -231 0 -216 -6
-216 88 l0 42 182 -2 183 -3 27 -50z m-332 -671 c0 -9 -5 -34 -11 -55 -9 -30
-20 -41 -48 -52 -70 -28 -156 -71 -163 -81 -8 -13 -50 82 -42 95 6 10 130 76
179 96 45 18 85 16 85 -3z m-6783 -150 c-3 -3 -12 -4 -19 -1 -8 3 -5 6 6 6 11
1 17 -2 13 -5z m6419 -5 c12 -21 42 -149 33 -143 -17 10 -70 126 -65 140 6 17
22 18 32 3z m-6349 -45 c-3 -3 -12 -4 -19 -1 -8 3 -5 6 6 6 11 1 17 -2 13 -5z
m116 -1 c-13 -2 -33 -2 -45 0 -13 2 -3 4 22 4 25 0 35 -2 23 -4z m6125 -40
c26 -86 35 -74 -110 -146 -73 -36 -173 -88 -223 -115 -49 -27 -151 -80 -225
-119 -74 -39 -169 -90 -210 -113 -41 -23 -262 -139 -490 -257 -228 -118 -464
-241 -525 -273 -60 -32 -159 -83 -220 -115 -60 -32 -166 -87 -235 -123 -69
-36 -137 -74 -151 -84 l-27 -18 -7 38 c-3 20 -15 57 -26 81 -18 42 -18 44 -2
58 10 7 450 229 978 493 528 264 1070 536 1205 604 135 69 248 125 251 126 3
0 11 -17 17 -37z m-6130 20 c-38 -2 -98 -2 -135 0 -38 2 -7 3 67 3 74 0 105
-1 68 -3z m15 -20 c-40 -2 -106 -2 -145 0 -40 1 -8 3 72 3 80 0 112 -2 73 -3z
m5 -20 c-43 -2 -113 -2 -155 0 -43 1 -8 3 77 3 85 0 120 -2 78 -3z m-175 -20
c-13 -2 -33 -2 -45 0 -13 2 -3 4 22 4 25 0 35 -2 23 -4z m205 0 c-32 -2 -84
-2 -115 0 -32 2 -6 3 57 3 63 0 89 -1 58 -3z m-105 -20 c-29 -2 -78 -2 -110 0
-32 2 -8 3 52 3 61 0 87 -1 58 -3z m145 0 c-15 -2 -42 -2 -60 0 -18 2 -6 4 27
4 33 0 48 -2 33 -4z m-250 -20 c-10 -2 -28 -2 -40 0 -13 2 -5 4 17 4 22 1 32
-1 23 -4z m95 0 c-13 -2 -35 -2 -50 0 -16 2 -5 4 22 4 28 0 40 -2 28 -4z m160
0 c-13 -2 -33 -2 -45 0 -13 2 -3 4 22 4 25 0 35 -2 23 -4z m6584 1 c-3 -3 -12
-4 -19 -1 -8 3 -5 6 6 6 11 1 17 -2 13 -5z m-6870 -20 c-3 -3 -12 -4 -19 -1
-8 3 -5 6 6 6 11 1 17 -2 13 -5z m290 0 c-3 -3 -12 -4 -19 -1 -8 3 -5 6 6 6
11 1 17 -2 13 -5z m-104 -11 c-7 -2 -19 -2 -25 0 -7 3 -2 5 12 5 14 0 19 -2
13 -5z m144 1 c-3 -3 -12 -4 -19 -1 -8 3 -5 6 6 6 11 1 17 -2 13 -5z m6450
-10 c-3 -3 -12 -4 -19 -1 -8 3 -5 6 6 6 11 1 17 -2 13 -5z m-6600 -10 c-3 -3
-12 -4 -19 -1 -8 3 -5 6 6 6 11 1 17 -2 13 -5z m6580 -10 c-3 -3 -12 -4 -19
-1 -8 3 -5 6 6 6 11 1 17 -2 13 -5z m-6580 -420 c103 -26 189 -47 191 -49 1
-1 -11 -26 -28 -56 -16 -30 -30 -64 -30 -76 0 -41 14 -43 -344 43 -55 13 -103
29 -108 36 -13 19 -2 77 19 101 20 22 69 46 95 47 9 0 101 -21 205 -46z m715
-173 c388 -96 651 -160 868 -211 476 -114 1152 -281 1159 -286 2 -2 -6 -29
-18 -60 -11 -31 -21 -64 -21 -75 0 -24 -5 -24 -99 1 -42 11 -164 40 -271 66
-107 25 -269 63 -360 84 -374 90 -463 111 -640 153 -251 61 -440 105 -725 172
-132 30 -260 61 -284 67 l-43 11 5 56 c6 69 24 111 48 111 10 0 182 -40 381
-89z m5140 -177 c205 -53 483 -125 618 -159 232 -60 246 -65 273 -97 l28 -33
-23 -10 c-50 -21 -91 -60 -110 -102 -15 -34 -23 -43 -36 -38 -16 7 -135 39
-407 110 -71 19 -157 41 -190 50 -33 9 -148 39 -255 66 -275 71 -511 136 -549
152 l-32 14 28 19 c15 10 46 27 68 38 22 11 42 23 45 26 11 13 126 60 147 60
12 0 190 -43 395 -96z m-2490 -161 c58 -26 131 -93 165 -151 44 -74 69 -212
39 -212 -8 0 -18 -4 -21 -10 -4 -6 1 -7 11 -3 12 4 15 2 12 -8 -3 -8 -10 -13
-15 -12 -5 1 -9 -10 -9 -25 1 -17 -4 -26 -11 -24 -7 1 -13 -3 -13 -9 0 -5 -4
-8 -9 -5 -10 7 -21 -17 -21 -46 0 -20 0 -20 -17 -1 -10 10 -14 13 -9 6 12 -18
-1 -46 -18 -40 -8 3 -16 -2 -19 -14 -3 -10 -11 -19 -19 -19 -10 0 -9 3 2 11
13 9 13 10 0 7 -8 -3 -17 -15 -20 -27 -6 -27 -66 -57 -74 -38 -2 7 -5 3 -5 -7
-1 -11 -4 -16 -8 -13 -3 4 -12 2 -20 -5 -11 -9 -12 -7 -8 8 4 10 -1 6 -10 -9
-10 -18 -22 -26 -31 -23 -8 3 -14 0 -14 -5 0 -6 -9 -9 -20 -6 -11 3 -18 1 -15
-3 3 -5 -13 -11 -36 -15 -34 -6 -51 -2 -104 24 -141 70 -223 229 -195 381 27
150 109 251 243 301 70 26 201 22 269 -8z m162 -480 c-5 -5 -12 -12 -16 -18
-4 -6 -8 -2 -8 8 0 9 7 17 17 17 9 0 12 -3 7 -7z"/>
<path d="M2742 7328 c-7 -7 -12 -16 -12 -21 0 -5 7 -1 16 8 9 9 14 18 12 20
-2 3 -10 -1 -16 -7z"/>
<path d="M2698 7218 c-10 -10 -14 -18 -9 -18 10 0 36 29 30 34 -2 1 -12 -6
-21 -16z"/>
<path d="M2800 7190 c-9 -6 -10 -10 -3 -10 6 0 15 5 18 10 8 12 4 12 -15 0z"/>
<path d="M2731 7124 c-14 -13 -22 -27 -18 -30 4 -4 7 -2 7 5 0 7 5 9 13 5 6
-4 9 -4 5 1 -4 4 0 14 10 21 9 7 15 14 12 17 -3 2 -16 -6 -29 -19z"/>
<path d="M7235 7530 c3 -5 8 -10 11 -10 2 0 4 5 4 10 0 6 -5 10 -11 10 -5 0
-7 -4 -4 -10z"/>
<path d="M7153 7486 c18 -18 36 -29 42 -27 5 3 3 7 -3 9 -10 3 -10 7 -1 18 9
12 9 18 0 27 -10 9 -11 8 -5 -8 7 -18 6 -19 -10 -6 -10 8 -26 15 -36 16 -14 1
-11 -5 13 -29z m18 7 c13 -16 12 -17 -3 -4 -10 7 -18 15 -18 17 0 8 8 3 21
-13z"/>
<path d="M7326 7481 c-9 -15 23 -36 36 -23 5 5 7 15 4 21 -9 13 -33 14 -40 2z
m34 -11 c0 -5 -5 -10 -11 -10 -5 0 -7 5 -4 10 3 6 8 10 11 10 2 0 4 -4 4 -10z"/>
<path d="M2599 7148 c14 -19 32 -15 30 5 0 8 -2 8 -6 -1 -4 -10 -8 -10 -21 0
-15 12 -16 11 -3 -4z"/>
<path d="M7698 6483 c12 -2 32 -2 45 0 12 2 2 4 -23 4 -25 0 -35 -2 -22 -4z"/>
<path d="M7581 6464 c0 -11 3 -14 6 -6 3 7 2 16 -1 19 -3 4 -6 -2 -5 -13z"/>
<path d="M7600 6410 c0 -5 5 -10 11 -10 5 0 7 5 4 10 -3 6 -8 10 -11 10 -2 0
-4 -4 -4 -10z"/>
<path d="M6100 5235 c-7 -8 -16 -13 -20 -10 -9 5 -33 -55 -26 -63 3 -2 8 7 12
22 3 14 9 24 14 21 4 -2 18 7 30 20 13 14 19 25 13 25 -6 0 -16 -7 -23 -15z"/>
<path d="M6150 5216 c0 -2 8 -10 18 -17 15 -13 16 -12 3 4 -13 16 -21 21 -21
13z"/>
<path d="M5985 5200 c-4 -6 -11 -7 -17 -4 -7 4 -8 2 -4 -5 6 -9 12 -9 24 1 10
7 19 14 21 15 2 2 -1 3 -7 3 -6 0 -14 -5 -17 -10z"/>
<path d="M6021 5154 c0 -11 3 -14 6 -6 3 7 2 16 -1 19 -3 4 -6 -2 -5 -13z"/>
<path d="M5990 5140 c-9 -6 -10 -10 -3 -10 6 0 15 5 18 10 8 12 4 12 -15 0z"/>
<path d="M5900 4860 c0 -5 5 -10 10 -10 6 0 10 5 10 10 0 6 -4 10 -10 10 -5 0
-10 -4 -10 -10z"/>
<path d="M3481 4644 c0 -11 3 -14 6 -6 3 7 2 16 -1 19 -3 4 -6 -2 -5 -13z"/>
<path d="M2171 3815 c1 -19 18 -51 18 -35 0 8 -4 22 -9 30 -5 8 -9 11 -9 5z"/>
<path d="M2225 3749 c-4 -6 -5 -12 -2 -15 2 -3 7 2 10 11 7 17 1 20 -8 4z"/>
<path d="M7736 5243 c-6 -14 -5 -15 5 -6 7 7 10 15 7 18 -3 3 -9 -2 -12 -12z"/>
<path d="M5261 1854 c0 -11 3 -14 6 -6 3 7 2 16 -1 19 -3 4 -6 -2 -5 -13z"/>
</g>
</svg>
