<?xml version="1.0" standalone="no"?>
<!DOCTYPE svg PUBLIC "-//W3C//DTD SVG 20010904//EN"
 "http://www.w3.org/TR/2001/REC-SVG-20010904/DTD/svg10.dtd">
<svg version="1.0" xmlns="http://www.w3.org/2000/svg"
 width="1024.000000pt" height="1024.000000pt" viewBox="0 0 1024.000000 1024.000000"
 preserveAspectRatio="xMidYMid meet">
<metadata>
Created by potrace 1.14, written by Peter Selinger 2001-2017
</metadata>
<g transform="translate(0.000000,1024.000000) scale(0.100000,-0.100000)"
fill="#000000" stroke="none">
<path d="M1995 8823 c-46 -24 -76 -54 -96 -98 -18 -38 -19 -82 -19 -800 0
-718 1 -762 19 -800 21 -46 50 -74 106 -104 39 -20 51 -21 509 -21 340 0 480
3 510 12 58 18 132 93 140 144 3 21 7 374 8 784 2 701 1 747 -16 780 -25 48
-55 79 -98 101 -35 18 -65 19 -535 19 -434 -1 -502 -3 -528 -17z m1042 -73
c70 -42 66 12 65 -824 0 -834 3 -795 -65 -836 -31 -19 -54 -20 -512 -20 -458
0 -481 1 -512 20 -42 25 -60 63 -64 130 -1 30 -2 374 -1 764 l2 708 39 39 39
39 488 0 c467 0 490 -1 521 -20z"/>
<path d="M2077 8283 c-4 -3 -7 -12 -7 -20 0 -9 16 -13 55 -13 48 0 55 2 55 20
0 17 -7 20 -48 20 -27 0 -52 -3 -55 -7z"/>
<path d="M2070 8070 c0 -18 7 -20 55 -20 48 0 55 2 55 20 0 18 -7 20 -55 20
-48 0 -55 -2 -55 -20z"/>
<path d="M2070 7859 c0 -18 5 -20 55 -18 46 2 55 5 55 21 0 15 -8 18 -55 18
-49 0 -55 -2 -55 -21z"/>
<path d="M2070 7660 c0 -18 7 -20 55 -20 48 0 55 2 55 20 0 18 -7 20 -55 20
-48 0 -55 -2 -55 -20z"/>
<path d="M2880 7563 c0 -21 -4 -42 -8 -48 -10 -14 -32 -17 -32 -4 0 8 -6 7
-17 -2 -13 -11 -17 -11 -20 -1 -3 6 -9 12 -14 12 -5 0 -9 -62 -9 -140 l0 -140
55 0 55 0 0 180 c0 99 -2 180 -5 180 -3 0 -5 -17 -5 -37z"/>
<path d="M2540 7380 l0 -140 58 0 57 0 -1 30 c-1 17 -2 81 -4 143 -1 61 -4
106 -7 99 -4 -10 -8 -10 -19 -1 -11 9 -21 9 -39 1 -15 -7 -25 -8 -25 -2 0 6
-4 10 -10 10 -6 0 -10 -53 -10 -140z"/>
<path d="M2410 7460 c0 -42 -2 -44 -67 -64 -18 -6 -23 -3 -23 11 0 15 -2 16
-10 3 -5 -8 -10 -50 -10 -92 l0 -78 60 0 60 0 0 130 c0 72 -2 130 -5 130 -3 0
-5 -18 -5 -40z"/>
<path d="M2077 7473 c-4 -3 -7 -12 -7 -20 0 -9 16 -13 55 -13 48 0 55 2 55 20
0 17 -7 20 -48 20 -27 0 -52 -3 -55 -7z"/>
<path d="M2070 7260 c0 -18 7 -20 55 -20 48 0 55 2 55 20 0 18 -7 20 -55 20
-48 0 -55 -2 -55 -20z"/>
<path d="M6988 8183 c7 -3 16 -2 19 1 4 3 -2 6 -13 5 -11 0 -14 -3 -6 -6z"/>
<path d="M7050 8160 c11 -11 20 -26 21 -32 2 -27 -4 -567 -7 -638 -1 -41 -4
-257 -5 -480 -1 -291 -4 -385 -10 -335 -5 39 -14 72 -19 73 -6 2 -10 12 -10
23 0 11 -7 22 -15 25 -9 4 -15 20 -16 38 -1 19 -6 4 -14 -39 -11 -55 -14 -280
-14 -1026 l-1 -955 84 4 c46 2 114 -1 151 -7 37 -7 69 -10 71 -8 2 2 5 763 6
1690 l3 1687 -122 0 -123 0 20 -20z"/>
<path d="M6376 7401 c-28 -44 -35 -67 -11 -35 13 17 14 -47 13 -541 -1 -518
-11 -1123 -17 -1030 -1 22 -6 49 -11 60 -7 15 -8 9 -5 -20 3 -22 2 -34 -1 -27
-3 6 -14 12 -24 12 -21 0 -29 18 -32 68 -5 118 -16 -460 -17 -976 l-1 -603 62
3 63 3 40 80 c43 86 93 164 133 208 l26 27 4 1400 4 1400 -85 0 c-47 0 -92 3
-101 6 -10 4 -23 -8 -40 -35z"/>
<path d="M5469 6738 c-1 -355 -12 -815 -17 -733 -3 47 -14 78 -22 65 -4 -6
-10 11 -13 39 -3 28 -12 61 -19 73 -11 19 -14 -34 -20 -337 -5 -198 -7 -528
-5 -734 l2 -373 45 -18 c65 -26 163 -85 215 -130 26 -22 48 -40 51 -40 2 0 4
576 4 1279 l0 1279 -88 16 c-48 9 -97 16 -109 16 l-23 0 -1 -402z"/>
<path d="M5443 7088 c-43 -56 -65 -88 -60 -88 10 0 80 90 75 95 -3 3 -10 0
-15 -7z"/>
<path d="M4612 6965 c3 -3 25 -9 49 -13 l44 -8 3 -121 3 -121 82 -7 c45 -4 98
-5 117 -3 l35 3 3 138 3 137 -172 0 c-95 0 -170 -2 -167 -5z"/>
<path d="M4708 5926 l-3 -661 -22 -35 c-13 -19 -23 -28 -23 -20 0 11 -3 11
-12 2 -23 -23 -37 -13 -41 31 -2 23 -4 -121 -5 -321 l-2 -363 43 34 c54 45
163 105 241 133 l61 22 3 910 2 911 -32 5 c-18 3 -72 7 -120 9 l-86 5 -4 -662z"/>
<path d="M3713 6387 l47 -10 0 -118 0 -117 103 46 c56 25 107 49 114 54 6 5
11 40 12 83 l1 75 -163 -1 c-137 -2 -155 -3 -114 -12z"/>
<path d="M3878 6078 c-92 -38 -98 -42 -108 -77 -5 -20 -10 -110 -11 -201 0
-117 -3 -158 -10 -141 -7 18 -13 21 -21 13 -6 -6 -16 -8 -23 -6 -6 3 -18 -3
-26 -12 -12 -14 -15 -109 -17 -545 l-3 -528 41 -61 c42 -62 115 -208 108 -216
-3 -2 -15 20 -29 49 -99 217 -280 368 -501 417 -70 16 -271 9 -313 -11 -63
-29 -82 -67 -30 -61 18 2 36 -1 39 -7 5 -7 -4 -9 -26 -6 l-33 5 34 -11 c19 -6
43 -8 53 -6 10 3 18 1 18 -4 0 -5 8 -9 18 -9 32 0 109 -59 128 -98 26 -51 23
-147 -4 -170 -10 -9 -21 -24 -25 -32 -4 -12 -6 -12 -6 2 -1 9 -6 20 -11 23
-13 8 -7 -29 8 -47 6 -8 18 -41 27 -74 33 -128 -25 -252 -148 -320 -46 -26
-62 -29 -137 -29 -75 0 -91 3 -131 27 -26 15 -59 41 -73 58 -30 36 -56 117
-56 173 0 30 -3 38 -14 34 -36 -14 -29 164 10 250 27 58 27 60 8 33 -9 -14
-19 -27 -21 -30 -2 -2 -7 1 -11 7 -9 15 -20 7 -53 -37 -87 -119 -127 -294
-107 -465 20 -179 73 -292 196 -426 61 -66 62 -67 47 -95 -18 -34 -19 -60 -4
-70 6 -3 9 -14 6 -24 -3 -14 -1 -17 11 -13 11 5 14 2 9 -11 -4 -10 -3 -15 3
-11 5 3 26 -5 47 -17 64 -40 242 -88 334 -92 l39 -2 -8 40 c-4 23 -7 102 -7
176 1 202 45 346 157 507 131 189 395 350 605 368 37 3 83 8 101 11 l32 5 0
904 c0 498 -3 905 -7 904 -5 0 -52 -19 -105 -41z"/>
<path d="M2875 6051 c6 -5 28 -11 50 -13 l40 -3 1 -300 c1 -165 -1 -288 -3
-273 -2 14 -11 29 -19 32 -21 8 -61 -10 -66 -31 -11 -44 -19 -676 -8 -686 3
-3 30 1 60 10 30 8 103 17 161 20 l106 5 -1 622 -1 621 -165 3 c-105 2 -161
-1 -155 -7z"/>
<path d="M7721 5962 c-1 -7 -5 -10 -11 -7 -5 3 -10 1 -10 -6 0 -10 -3 -10 -12
-1 -8 8 -19 8 -45 -3 -18 -8 -40 -12 -48 -9 -9 4 -16 -3 -21 -21 -4 -17 -9
-23 -14 -15 -16 25 -22 -15 -30 -173 -4 -89 -8 -152 -8 -139 -2 20 -6 22 -39
19 -26 -3 -39 -10 -44 -25 -5 -12 -11 -205 -15 -430 l-7 -409 74 -50 c90 -61
183 -159 224 -235 l30 -56 -3 749 c-1 413 -6 767 -11 787 -5 20 -9 31 -10 24z"/>
<path d="M3697 5839 c-34 -58 -39 -79 -16 -79 5 0 9 5 9 11 0 6 9 24 21 40 11
16 17 34 13 40 -4 7 -3 9 3 6 14 -9 27 23 15 35 -5 5 -25 -18 -45 -53z"/>
<path d="M6146 5435 c-7 -29 -18 -32 -36 -10 -11 13 -15 13 -21 3 -7 -10 -9
-10 -9 0 0 14 -77 17 -82 2 -1 -5 -19 -11 -38 -12 -19 -2 -38 -10 -42 -18 -4
-10 -7 -5 -8 15 -2 27 -3 26 -10 -10 -5 -22 -11 -83 -16 -135 -7 -86 -8 -92
-17 -60 -8 27 -11 31 -15 15 -9 -43 -22 -38 -24 11 -4 93 -13 -211 -16 -526
l-3 -315 35 -82 c19 -45 38 -98 42 -117 3 -20 7 -36 9 -36 1 0 29 16 61 35 32
20 91 48 131 62 l73 28 0 587 c0 324 -2 588 -4 588 -2 0 -7 -11 -10 -25z"/>
<path d="M6932 5350 c-2 -68 -6 -89 -12 -73 -10 24 -8 24 -100 7 -19 -4 -40
-10 -45 -15 -6 -4 -31 -11 -55 -15 -25 -4 -53 -11 -62 -15 -12 -7 -18 -4 -21
9 -3 9 -5 -117 -6 -281 l-1 -299 33 22 c59 39 187 98 228 105 22 4 42 12 45
19 2 6 3 151 1 321 -1 171 -4 267 -5 215z"/>
<path d="M4316 5232 c-3 -6 -22 -13 -41 -16 -19 -4 -35 -11 -35 -17 0 -6 -4
-7 -10 -4 -6 4 -10 -14 -10 -48 0 -30 -3 -76 -7 -103 -6 -42 -8 -45 -14 -24
l-7 25 -2 -25 -2 -25 -8 25 c-8 24 -8 24 -9 3 -1 -13 -5 -23 -11 -23 -5 0 -7
7 -4 15 4 8 1 15 -6 15 -6 0 -9 -4 -5 -9 3 -5 1 -12 -5 -16 -6 -4 -10 -131
-10 -360 l0 -353 50 -11 c28 -6 85 -24 127 -41 43 -16 78 -28 79 -27 1 1 13
29 27 62 24 56 26 74 31 265 7 243 -4 707 -15 688 -5 -7 -9 -8 -9 -3 0 14 -53
16 -62 2 -5 -8 -11 -7 -21 2 -9 7 -18 8 -21 3z"/>
<path d="M5300 5131 c0 -21 -6 -43 -13 -49 -7 -6 -52 -12 -100 -14 -48 -1 -87
-7 -87 -11 0 -5 -6 -7 -12 -4 -7 2 -23 0 -35 -4 -20 -7 -23 -5 -23 14 -1 15
-5 10 -15 -18 -10 -27 -15 -81 -15 -163 0 -121 0 -123 21 -117 29 9 195 10
247 1 l42 -8 0 206 c0 113 -2 206 -5 206 -3 0 -5 -17 -5 -39z"/>
<path d="M3580 5099 c0 -5 -4 -7 -10 -4 -5 3 -10 1 -10 -6 0 -8 -4 -8 -15 1
-11 9 -28 10 -58 5 -23 -5 -73 -9 -111 -10 -100 -3 -105 -11 -103 -167 l2
-121 65 -22 c82 -28 142 -58 203 -102 l47 -35 0 236 c0 130 -2 236 -5 236 -3
0 -5 -5 -5 -11z"/>
<path d="M2731 4815 c-1 -17 -3 -18 -11 -5 -7 11 -12 12 -17 4 -5 -7 -37 -12
-80 -12 -39 0 -77 -3 -84 -7 -8 -6 -10 -4 -4 5 6 10 4 12 -8 7 -10 -4 -17 -1
-17 6 0 7 -4 6 -9 -3 -11 -20 -20 -202 -14 -283 l6 -66 41 57 c53 71 152 162
211 192 44 23 45 24 45 72 0 29 -4 48 -11 48 -6 0 -9 -9 -6 -20 3 -11 1 -18
-4 -14 -5 3 -9 13 -9 22 0 13 -2 14 -9 3 -7 -11 -9 -11 -14 0 -3 9 -6 7 -6 -6z"/>
<path d="M7013 4782 c-19 -3 -10 -12 51 -53 47 -32 79 -61 86 -80 7 -16 16
-29 20 -29 4 0 8 -10 8 -22 0 -13 5 -41 11 -63 14 -52 15 -176 1 -155 -5 8
-10 10 -10 4 0 -5 5 -15 11 -21 8 -8 5 -14 -11 -23 -11 -6 -19 -17 -17 -23 5
-14 -50 -94 -69 -101 -8 -3 -14 -12 -14 -20 0 -8 -9 -18 -20 -21 -11 -3 -20
-10 -20 -15 0 -4 -10 -6 -22 -2 -14 3 -19 2 -14 -6 10 -17 -19 -26 -43 -13
-11 6 22 -31 73 -81 98 -99 155 -178 212 -295 33 -71 64 -177 63 -218 0 -11
-9 15 -19 57 -32 131 -114 273 -225 396 l-58 63 -51 -6 c-67 -9 -202 -64 -296
-121 -80 -49 -170 -124 -148 -124 7 0 2 -9 -12 -19 -13 -11 -29 -17 -35 -14
-5 3 -4 0 3 -8 6 -7 12 -24 11 -39 0 -22 -1 -22 -8 -6 -5 14 -10 16 -15 8 -4
-7 -4 -17 -1 -22 3 -6 -1 -13 -9 -16 -9 -3 -13 -10 -10 -15 3 -5 1 -9 -4 -9
-5 0 -22 -12 -38 -26 -35 -31 -65 -47 -141 -76 -75 -30 -225 -32 -290 -6 -24
10 -43 15 -43 12 0 -4 -9 4 -20 17 l-21 24 16 -32 c23 -50 18 -50 -16 -2 -39
55 -204 216 -242 235 -20 11 -24 18 -17 27 6 7 34 48 61 91 28 44 84 111 125
151 71 69 73 72 65 107 -14 59 -57 141 -117 219 -64 84 -88 109 -104 109 -6 0
-8 5 -5 10 3 6 0 10 -8 10 -8 0 -36 12 -62 27 -27 15 -45 21 -41 15 4 -7 2
-12 -3 -12 -6 0 -11 -9 -11 -20 0 -11 5 -20 11 -20 18 0 6 -236 -16 -305 -18
-56 -58 -127 -104 -185 -11 -14 -21 -31 -21 -38 0 -9 -8 -11 -22 -7 -21 5 -21
5 2 -10 l25 -15 -30 5 c-35 6 -43 11 100 -56 44 -21 89 -45 100 -53 l20 -16
-20 8 c-11 5 -46 20 -78 35 -33 15 -93 37 -135 49 -134 36 -446 14 -537 -39
-18 -11 -19 -12 -3 -18 10 -4 15 -11 12 -16 -3 -5 2 -9 10 -9 9 0 13 6 10 14
-3 8 -1 17 5 21 6 3 11 1 11 -4 0 -7 26 -11 65 -11 60 0 135 -23 135 -41 0 -4
10 -5 23 -2 18 4 19 3 7 -7 -12 -10 -11 -11 8 -7 13 3 22 3 19 1 -3 -3 11 -21
31 -41 24 -23 30 -33 18 -29 -19 7 -19 6 -3 -12 9 -10 29 -47 43 -83 34 -83
29 -148 -16 -236 -18 -35 -36 -63 -40 -63 -4 0 -11 -12 -15 -27 -5 -23 -108
-133 -124 -133 -4 0 -22 -10 -41 -23 -113 -76 -325 -83 -462 -17 -111 53 -124
73 -136 201 -7 67 -6 76 8 72 13 -4 13 -4 0 6 -21 15 -30 14 -30 -6 0 -14 -2
-15 -9 -5 -4 7 -18 14 -29 15 -12 1 -22 2 -22 3 0 12 43 118 58 144 36 58 172
188 255 242 42 28 77 55 77 58 0 16 -108 124 -169 169 -76 56 -132 85 -180 95
-26 5 -31 3 -23 -7 39 -49 40 -355 1 -430 -12 -22 -30 -102 -31 -139 -1 -15
-4 -26 -6 -23 -11 11 -41 -17 -37 -35 2 -11 0 -20 -5 -20 -4 0 -13 -13 -19
-30 -5 -16 -17 -30 -25 -30 -9 0 -16 -5 -16 -11 0 -6 -14 -22 -30 -36 -16 -13
-30 -30 -30 -37 0 -6 -10 -20 -22 -30 -13 -10 -40 -35 -62 -55 -34 -31 -38
-33 -33 -13 3 12 2 20 -3 17 -8 -5 -10 -13 -29 -110 -14 -72 -12 -171 4 -240
19 -80 19 -91 0 -75 -12 10 -15 10 -15 -4 0 -9 -4 -16 -10 -16 -5 0 -10 6 -10
13 0 9 -2 9 -9 -1 -6 -10 -25 -11 -77 -6 -38 4 -76 7 -84 7 -44 -1 -185 19
-250 36 -134 35 -200 49 -200 42 0 -30 27 -86 55 -118 19 -21 35 -41 35 -45 0
-16 139 -113 213 -148 73 -34 187 -71 257 -83 l25 -4 -25 -1 c-66 -4 -268 66
-339 117 -36 26 -52 26 -78 1 -47 -43 -7 -127 82 -172 148 -76 348 -111 728
-128 132 -5 213 -13 222 -20 8 -7 18 -28 21 -49 7 -37 57 -111 85 -127 22 -13
90 -45 114 -55 76 -31 288 -74 440 -90 122 -13 755 -18 755 -6 0 5 30 7 68 6
79 -2 260 9 273 17 5 3 16 -2 24 -10 18 -17 45 -11 45 10 0 23 13 16 58 -27
23 -22 47 -37 52 -34 15 9 12 25 -5 25 -18 0 -20 17 -2 23 6 2 -1 2 -18 -1
l-30 -4 20 20 c18 19 24 20 58 9 38 -12 45 -21 27 -32 -5 -3 -10 -10 -10 -16
0 -5 5 -9 10 -9 6 0 10 5 10 10 0 6 9 20 20 32 l20 22 20 -22 21 -22 -37 0
c-30 0 -34 -2 -25 -14 10 -11 8 -15 -6 -19 -10 -3 1 -5 24 -6 63 -2 59 -16 -5
-19 -129 -7 -192 -17 -192 -31 0 -14 217 14 315 40 39 10 140 43 225 73 258
91 400 139 745 251 182 58 357 115 390 126 166 56 581 179 601 179 13 0 34 -5
48 -11 20 -9 52 -3 193 36 186 53 246 62 282 43 38 -20 38 -38 0 -38 -28 0
-408 -87 -418 -96 -2 -2 4 -11 14 -20 37 -37 91 -188 80 -223 -4 -12 -22 -21
-58 -29 -146 -30 -243 -57 -307 -85 -14 -6 -29 -10 -33 -9 -4 1 -16 -2 -27 -8
-11 -6 -32 -12 -47 -14 -45 -6 -88 -18 -94 -28 -3 -5 -24 -10 -47 -11 -23 -1
-42 -4 -42 -8 0 -4 -15 -9 -32 -12 -18 -3 -49 -10 -68 -15 -104 -30 -315 -82
-331 -82 -11 0 -19 -7 -20 -17 0 -10 -3 -13 -6 -6 -3 8 -10 9 -21 3 -23 -12
-167 -50 -192 -50 -11 0 -20 -6 -20 -12 0 -9 -4 -8 -10 2 -7 10 -12 12 -17 4
-7 -10 -41 -25 -69 -30 -6 -1 -36 -9 -65 -17 -30 -8 -90 -22 -134 -32 -44 -9
-87 -19 -95 -22 -8 -3 -22 -7 -30 -9 -20 -4 -114 -30 -230 -65 -52 -15 -124
-35 -160 -44 -36 -9 -74 -21 -85 -26 -11 -5 -50 -15 -86 -23 -36 -7 -74 -18
-85 -24 -10 -5 -39 -13 -64 -17 -67 -10 -174 -36 -185 -46 -6 -4 -35 -11 -65
-14 -30 -4 -73 -15 -95 -25 -22 -10 -58 -22 -80 -25 -22 -4 -60 -13 -85 -21
-25 -7 -92 -23 -150 -34 -58 -11 -127 -26 -155 -34 -27 -8 -113 -32 -190 -54
-77 -21 -183 -49 -235 -62 -88 -21 -173 -43 -340 -90 -36 -10 -112 -30 -170
-44 -58 -13 -179 -43 -270 -65 -91 -23 -173 -41 -183 -41 -9 0 -25 -4 -35 -9
-28 -15 -208 -60 -305 -77 -43 -7 -57 -28 -34 -51 13 -14 28 -13 149 7 126 20
241 48 207 49 -8 1 -65 -8 -124 -19 -60 -10 -111 -18 -113 -16 -4 5 23 11 158
36 63 12 365 77 670 145 305 68 582 128 615 134 33 6 150 15 260 21 1073 55
2037 230 2741 499 173 66 172 66 154 51 -12 -9 -10 -10 10 -4 14 5 35 8 47 9
11 0 19 4 15 9 -3 5 2 7 11 3 11 -4 15 -1 12 11 -3 17 2 19 80 24 25 1 34 6
31 15 -4 10 -1 11 14 3 28 -15 38 -11 15 6 l-20 16 20 -5 c58 -17 74 -16 125
4 30 12 64 22 75 23 66 7 114 20 119 32 3 8 14 14 25 14 11 0 27 7 35 16 9 8
25 16 36 17 12 1 32 16 46 35 15 18 32 31 39 28 18 -7 27 5 15 19 -12 14 14
30 31 19 5 -3 9 2 9 10 0 9 5 16 12 16 6 0 9 3 6 6 -4 3 -18 -2 -32 -11 -14
-9 -33 -15 -43 -12 -15 4 -15 5 3 6 11 0 29 10 39 21 18 20 18 21 -1 14 -10
-4 -23 -10 -29 -14 -14 -9 -45 -20 -45 -16 0 11 94 55 104 49 6 -3 8 -3 4 2
-10 10 11 37 23 29 5 -3 6 2 3 10 -3 8 0 25 8 38 24 42 55 706 38 825 -25 180
-135 406 -275 563 -25 28 -45 55 -45 60 0 6 12 10 28 10 78 0 142 43 142 96 0
52 -55 93 -202 147 -179 66 -475 157 -753 233 -132 36 -273 76 -313 90 -108
36 -121 33 -106 -23 6 -23 4 -22 269 -98 72 -21 157 -45 190 -56 33 -10 106
-32 163 -49 56 -17 102 -34 102 -39 0 -6 -207 -42 -245 -43 -5 0 -108 35 -228
76 -120 42 -222 76 -226 76 -5 0 -11 -35 -14 -77 -5 -75 -25 -178 -33 -170 -2
2 3 39 12 83 21 102 15 243 -16 334 -21 65 -89 189 -132 244 -52 66 -80 96
-88 91 -10 -6 -32 20 -23 28 3 4 2 7 -4 7 -5 0 -37 17 -70 39 -54 35 -146 76
-198 87 -11 3 -31 8 -45 11 -31 7 -186 11 -217 5z m551 -486 c26 -14 49 -39
70 -76 27 -48 31 -64 30 -130 -1 -83 -18 -133 -61 -176 -57 -57 -149 -70 -229
-32 -150 70 -163 312 -23 405 71 47 140 50 213 9z m-1014 -465 c0 -5 -7 -12
-16 -15 -14 -5 -15 -4 -4 9 14 17 20 19 20 6z m1234 -76 c-5 -12 54 -40 76
-37 11 2 10 -1 -3 -8 -13 -9 -25 -8 -47 2 -17 7 -30 16 -30 20 0 5 -4 8 -10 8
-5 0 -10 -6 -10 -14 0 -8 -4 -17 -9 -20 -5 -4 -2 17 7 45 12 37 18 46 23 32 3
-10 5 -23 3 -28z m199 -60 c20 -4 37 -11 37 -16 0 -5 -3 -8 -7 -7 -5 1 -23 -2
-41 -6 -26 -6 -31 -11 -22 -21 6 -8 21 -15 33 -17 12 -2 20 -7 17 -13 -3 -5
-9 -8 -15 -6 -39 15 -102 18 -122 5 -13 -8 -23 -11 -23 -6 0 5 -18 14 -39 21
-37 11 -62 43 -47 58 3 4 6 1 6 -5 0 -7 9 -12 21 -12 12 0 17 4 13 11 -4 8 1
9 15 4 12 -4 27 -2 34 3 7 5 26 14 42 20 17 6 22 11 13 11 -10 1 -18 6 -18 12
0 6 15 2 33 -9 17 -11 49 -23 70 -27z m773 7 c-3 -5 6 -15 20 -22 14 -8 49
-43 78 -79 190 -237 263 -477 222 -736 -28 -178 -19 -166 -143 -197 -60 -15
-119 -30 -132 -34 l-24 -7 23 30 c30 41 38 90 46 263 10 208 -12 314 -112 547
-56 128 -61 184 -21 219 27 23 54 33 43 16z m-1023 -27 c-3 -9 -8 -14 -10 -11
-3 3 -2 9 2 15 9 16 15 13 8 -4z m327 -15 c0 -5 -2 -10 -4 -10 -3 0 -8 5 -11
10 -3 6 -1 10 4 10 6 0 11 -4 11 -10z m-40 -10 c0 -5 -5 -10 -11 -10 -5 0 -7
5 -4 10 3 6 8 10 11 10 2 0 4 -4 4 -10z m70 -14 c0 -3 -4 -8 -10 -11 -5 -3
-10 -1 -10 4 0 6 5 11 10 11 6 0 10 -2 10 -4z m-1101 -75 c45 -23 108 -91 126
-135 13 -32 27 -122 18 -112 -6 6 -122 -111 -149 -151 -10 -15 -17 -32 -16
-36 1 -5 -2 -6 -7 -2 -6 3 -17 -7 -25 -23 -8 -15 -26 -33 -40 -40 -14 -6 -26
-16 -26 -22 0 -5 -12 -10 -27 -11 l-28 -1 25 -8 c24 -8 23 -8 -8 -9 -69 -2
-154 55 -193 131 -80 156 -14 355 142 422 50 22 161 20 208 -3z m328 -103 c-2
-13 -4 -3 -4 22 0 25 2 35 4 23 2 -13 2 -33 0 -45z m1269 -285 c40 -81 40 -82
10 -48 -14 17 -26 37 -26 45 -1 11 -6 9 -19 -7 -10 -12 -21 -19 -25 -16 -6 6
-10 -13 -7 -31 4 -18 -11 -46 -25 -46 -8 0 -14 -7 -14 -15 0 -8 6 -15 13 -15
6 0 -5 -16 -25 -35 -25 -22 -38 -43 -38 -59 0 -32 -17 -34 -23 -3 -3 19 -5 18
-12 -10 -4 -18 -14 -33 -21 -33 -8 0 -14 -4 -14 -10 0 -5 -10 -14 -22 -21 -18
-10 -20 -9 -15 5 4 10 3 15 -3 11 -6 -3 -10 -1 -10 4 0 6 -5 11 -10 11 -6 0
-8 -12 -5 -27 6 -27 6 -27 -9 -9 -9 11 -16 23 -16 28 0 4 -4 8 -8 8 -4 0 -8
-19 -9 -41 -2 -47 -8 -58 -25 -41 -8 8 -8 15 1 25 9 12 8 16 -3 20 -19 8 -26
-1 -26 -33 0 -31 -28 -72 -36 -52 -4 7 -22 11 -47 11 -34 -2 -36 -3 -12 -6 47
-7 55 -23 12 -23 -26 0 -40 -5 -44 -17 -4 -9 -1 -19 5 -21 7 -2 12 -11 11 -20
0 -11 -2 -12 -6 -4 -2 6 -13 12 -22 12 -10 0 -23 10 -29 23 -8 17 -11 18 -11
5 -1 -10 -7 -18 -15 -18 -7 0 -17 -18 -23 -42 l-10 -43 -8 43 c-9 48 -22 55
-31 15 -9 -43 -12 -50 -13 -27 -1 18 -9 22 -62 28 -34 3 -86 3 -115 0 -48 -6
-54 -5 -48 10 5 12 0 16 -17 16 -19 0 -21 -2 -9 -10 25 -15 6 -20 -33 -8 -27
8 -34 14 -25 21 9 6 6 6 -7 1 -11 -4 -40 -9 -65 -11 -35 -3 -42 -2 -30 7 12 9
11 10 -8 5 -13 -4 -30 -1 -39 7 -13 10 -17 10 -20 0 -3 -6 -10 -9 -16 -5 -27
17 -151 31 -314 36 l-52 2 28 30 c55 60 71 79 71 88 0 5 7 7 14 4 10 -4 13 -1
10 7 -3 7 7 28 23 46 15 19 28 38 29 44 0 6 2 17 2 24 1 7 6 11 11 8 12 -8 22
20 14 41 -5 12 -3 14 7 8 8 -5 11 -4 7 2 -9 15 12 74 34 96 11 10 19 23 19 30
0 7 4 6 10 -3 5 -8 10 -10 10 -4 0 6 22 8 63 4 34 -3 87 -5 117 -4 281 9 371
10 376 3 3 -5 14 -3 26 4 16 9 22 9 25 0 3 -10 9 -9 26 1 29 18 97 28 97 14 0
-6 7 -5 17 3 13 11 17 11 20 2 7 -20 20 -15 27 10 4 15 9 18 14 10 5 -7 13 -9
21 -3 8 4 20 6 27 3 6 -2 15 1 19 6 3 6 11 9 16 6 5 -4 14 -3 21 1 8 5 6 10
-8 15 -11 5 -4 6 19 3 24 -4 43 -2 54 7 13 11 17 11 20 2 3 -7 9 -13 15 -13 6
0 8 6 5 14 -3 8 1 20 10 27 13 11 17 10 28 -4 17 -23 19 -22 35 17 l13 34 52
-59 c29 -32 65 -85 81 -116z m-269 101 c-3 -3 -12 -4 -19 -1 -8 3 -5 6 6 6 11
1 17 -2 13 -5z m-997 -84 c0 -5 -4 -10 -10 -10 -5 0 -10 5 -10 10 0 6 5 10 10
10 6 0 10 -4 10 -10z m1281 -120 c5 0 9 -4 9 -10 0 -17 -29 2 -35 23 -14 49
-13 60 2 25 8 -21 20 -38 24 -38z m-3046 -1 c57 -14 126 -75 154 -134 22 -47
28 -150 11 -190 -8 -19 -9 -18 -9 4 -1 29 -6 25 -15 -12 -4 -19 -3 -26 3 -22
7 4 8 -1 4 -11 -4 -11 -8 -13 -11 -6 -2 7 -10 12 -17 12 -7 0 -16 6 -19 13 -3
6 -4 -1 -1 -16 4 -19 2 -26 -5 -22 -19 12 -71 -18 -66 -37 2 -10 0 -18 -5 -18
-5 0 -9 6 -9 12 0 7 -7 2 -16 -10 -8 -12 -25 -22 -37 -22 -17 0 -19 -2 -8 -9
12 -8 9 -11 -12 -16 -15 -4 -33 -5 -41 -2 -9 4 -13 1 -10 -6 2 -7 -6 -12 -23
-13 -16 -1 -39 -5 -52 -9 -17 -6 -22 -5 -17 3 5 8 2 10 -9 6 -21 -8 -17 -12
36 -29 38 -13 40 -14 9 -9 -48 8 -115 48 -143 87 -38 51 -52 97 -51 167 1 134
95 249 233 286 59 16 73 16 126 3z m3012 -25 c-3 -3 -12 -4 -19 -1 -8 3 -5 6
6 6 11 1 17 -2 13 -5z m-37 -44 c0 -5 -4 -10 -10 -10 -5 0 -10 5 -10 10 0 6 5
10 10 10 6 0 10 -4 10 -10z m-35 -30 c3 -5 1 -10 -4 -10 -6 0 -11 5 -11 10 0
6 2 10 4 10 3 0 8 -4 11 -10z m-25 -30 c0 -11 -4 -20 -10 -20 -5 0 -10 9 -10
20 0 11 5 20 10 20 6 0 10 -9 10 -20z m11 -41 c-5 -13 -10 -19 -10 -12 -1 15
10 45 15 40 3 -2 0 -15 -5 -28z m-75 -16 c-10 -10 -19 5 -10 18 6 11 8 11 12
0 2 -7 1 -15 -2 -18z m44 12 c0 -8 -4 -15 -10 -15 -5 0 -10 7 -10 15 0 8 5 15
10 15 6 0 10 -7 10 -15z m-322 -162 c-10 -2 -26 -2 -35 0 -10 3 -2 5 17 5 19
0 27 -2 18 -5z m-98 -37 c0 -2 -7 -6 -15 -10 -8 -3 -15 -1 -15 4 0 6 7 10 15
10 8 0 15 -2 15 -4z m-2096 -22 c3 -8 2 -13 -3 -10 -5 3 -12 -1 -15 -10 -4 -9
-9 -14 -12 -11 -5 5 13 47 20 47 2 0 7 -7 10 -16z m-244 2 c0 -3 -4 -8 -10
-11 -5 -3 -10 -1 -10 4 0 6 5 11 10 11 6 0 10 -2 10 -4z m2230 -46 c0 -5 -2
-10 -4 -10 -3 0 -8 5 -11 10 -3 6 -1 10 4 10 6 0 11 -4 11 -10z m-3902 -117
c-21 -2 -57 -2 -80 0 -24 2 -7 4 37 4 44 0 63 -2 43 -4z m5119 -419 c-3 -3
-12 -4 -19 -1 -8 3 -5 6 6 6 11 1 17 -2 13 -5z m-2252 -33 c3 -5 2 -12 -3 -15
-5 -3 -9 1 -9 9 0 17 3 19 12 6z m-285 -21 c0 -5 -7 -10 -15 -10 -8 0 -15 5
-15 10 0 6 7 10 15 10 8 0 15 -4 15 -10z m2360 -5 c0 -2 -10 -9 -22 -15 -22
-11 -22 -10 -4 4 21 17 26 19 26 11z m-2807 -22 c-7 -2 -19 -2 -25 0 -7 3 -2
5 12 5 14 0 19 -2 13 -5z m433 -18 c-4 -10 1 -15 15 -15 13 0 18 4 13 12 -4 7
-3 8 5 4 16 -10 4 -26 -22 -27 -21 -1 -20 -2 3 -10 21 -7 20 -8 -9 -4 -18 3
-42 5 -53 5 -11 0 -16 4 -12 11 3 6 14 9 24 6 12 -3 20 2 23 14 3 11 8 19 12
19 4 0 5 -7 1 -15z m2044 -129 c-8 -8 -26 -17 -40 -20 -19 -5 -17 -2 10 13 42
24 49 26 30 7z m-110 -51 c-14 -8 -29 -14 -35 -14 -5 0 1 6 15 14 14 8 30 14
35 14 6 0 -1 -6 -15 -14z m-2493 -321 c-3 -3 -12 -4 -19 -1 -8 3 -5 6 6 6 11
1 17 -2 13 -5z m-2194 -601 c-7 -2 -21 -2 -30 0 -10 3 -4 5 12 5 17 0 24 -2
18 -5z"/>
<path d="M7421 4161 c-17 -79 -16 -81 30 -81 l40 0 -3 -37 c-3 -33 -6 -38 -28
-37 -14 0 -37 4 -52 9 -23 6 -28 4 -28 -10 0 -27 28 -47 75 -53 39 -4 48 -1
75 26 20 20 30 40 30 60 0 39 -35 82 -66 82 -15 0 -24 6 -24 15 0 12 13 15 55
15 48 0 55 3 55 19 0 26 -4 28 -81 36 l-67 7 -11 -51z"/>
<path d="M7888 3696 c-30 -11 -35 -21 -16 -32 6 -4 16 0 23 9 8 12 22 15 51
12 33 -4 35 -4 12 4 -14 5 -30 11 -35 13 -4 3 -20 0 -35 -6z"/>
<path d="M7810 3655 c0 -8 7 -15 15 -15 8 0 15 7 15 15 0 8 -7 15 -15 15 -8 0
-15 -7 -15 -15z"/>
<path d="M6854 3436 c-26 -19 -70 -117 -79 -176 -4 -25 -2 -57 4 -72 12 -31
65 -68 97 -68 38 0 88 43 116 100 42 88 42 158 -1 201 -24 23 -38 29 -73 29
-24 0 -53 -6 -64 -14z m96 -55 c17 -33 11 -75 -17 -131 -36 -70 -58 -83 -83
-52 -21 25 -19 58 7 122 32 79 70 103 93 61z"/>
<path d="M8446 3285 c-3 -8 -1 -15 4 -15 13 0 22 18 11 24 -5 3 -11 -1 -15 -9z"/>
<path d="M8390 3270 c0 -13 18 -22 24 -11 3 5 -1 11 -9 15 -8 3 -15 1 -15 -4z"/>
<path d="M8506 3245 c4 -8 8 -15 10 -15 2 0 4 7 4 15 0 8 -4 15 -10 15 -5 0
-7 -7 -4 -15z"/>
<path d="M8308 3233 c7 -3 16 -2 19 1 4 3 -2 6 -13 5 -11 0 -14 -3 -6 -6z"/>
<path d="M8530 3210 c0 -5 5 -10 10 -10 6 0 10 5 10 10 0 6 -4 10 -10 10 -5 0
-10 -4 -10 -10z"/>
<path d="M8360 2950 c0 -5 7 -10 15 -10 8 0 15 5 15 10 0 6 -7 10 -15 10 -8 0
-15 -4 -15 -10z"/>
<path d="M8250 2930 c0 -5 5 -10 10 -10 6 0 10 5 10 10 0 6 -4 10 -10 10 -5 0
-10 -4 -10 -10z"/>
<path d="M8290 2930 c0 -5 5 -10 10 -10 6 0 10 5 10 10 0 6 -4 10 -10 10 -5 0
-10 -4 -10 -10z"/>
<path d="M8340 2920 c0 -5 5 -10 10 -10 6 0 10 5 10 10 0 6 -4 10 -10 10 -5 0
-10 -4 -10 -10z"/>
<path d="M8160 2824 c0 -8 5 -12 10 -9 6 4 8 11 5 16 -9 14 -15 11 -15 -7z"/>
<path d="M7100 2790 c-9 -6 -10 -10 -3 -10 6 0 15 5 18 10 8 12 4 12 -15 0z"/>
<path d="M5488 2920 c-15 -11 -30 -30 -33 -41 -7 -20 -8 -20 -26 -3 -16 14
-24 16 -37 7 -28 -17 -21 -47 15 -58 l31 -10 -23 -38 c-17 -29 -24 -34 -28
-23 -4 9 -18 16 -32 16 -21 0 -25 -5 -25 -29 0 -23 5 -30 27 -36 15 -3 43 -24
61 -46 30 -35 39 -39 73 -37 30 1 46 10 69 34 16 18 27 34 26 36 -2 1 -6 17
-9 34 -5 26 -2 33 13 37 50 13 49 112 0 148 -41 30 -73 33 -102 9z m80 -76 c4
-41 -17 -59 -46 -38 -38 26 -21 78 23 72 14 -2 21 -12 23 -34z m-61 -104 c23
-46 -23 -81 -50 -38 -8 12 -7 24 1 43 14 31 32 29 49 -5z"/>
<path d="M2803 4326 c-62 -28 -88 -116 -45 -158 l21 -21 -25 -19 c-36 -29 -32
-72 10 -114 30 -30 40 -34 86 -34 60 0 100 20 124 62 19 32 15 78 -10 99 -13
10 -12 14 2 30 8 9 18 35 21 57 4 33 1 44 -24 72 -24 27 -38 33 -79 36 -29 3
-62 -1 -81 -10z m107 -56 c40 -40 18 -81 -44 -83 -40 -1 -66 17 -66 46 0 52
71 76 110 37z m2 -163 c34 -53 -55 -104 -104 -60 -42 38 -1 89 62 78 19 -4 38
-12 42 -18z"/>
<path d="M2390 4260 c-17 -9 -126 -40 -335 -95 -364 -96 -750 -217 -882 -276
-63 -28 -103 -72 -103 -112 0 -35 53 -75 109 -83 28 -4 54 -11 57 -16 3 -5
-10 -28 -30 -51 -122 -142 -160 -193 -205 -278 -63 -118 -88 -190 -107 -299
-27 -161 -11 -547 27 -666 21 -63 31 -78 118 -165 177 -178 435 -324 856 -483
674 -256 1522 -424 2411 -476 l181 -11 299 86 c406 117 1159 361 1084 350
-460 -61 -1192 -59 -2005 6 -205 16 -641 75 -881 120 -614 113 -1193 317
-1523 536 -159 106 -301 263 -287 318 3 12 -3 65 -14 117 -40 190 -36 316 14
460 43 123 150 280 281 411 35 35 51 57 43 60 -8 3 -6 6 5 6 10 1 32 -13 49
-29 27 -28 30 -35 24 -71 -4 -23 -35 -93 -71 -157 -93 -169 -126 -276 -133
-428 -3 -68 1 -171 8 -238 l12 -117 67 -71 c46 -48 70 -68 75 -60 5 8 2 11 -5
10 -15 -3 -18 14 -8 59 4 19 3 30 -2 27 -5 -3 -9 4 -9 15 0 12 -4 21 -9 21
-10 0 -21 80 -13 94 2 4 6 38 7 75 3 73 30 161 78 261 37 76 27 61 120 175 70
85 148 160 210 200 21 13 25 20 15 26 -9 6 -7 9 8 9 34 0 45 19 23 41 -10 10
-19 24 -19 29 0 15 30 12 47 -6 11 -11 19 -12 26 -5 18 18 30 12 16 -6 -13
-17 -13 -17 6 -3 11 8 22 17 25 20 12 12 175 84 280 124 131 49 124 36 92 161
-19 72 -30 140 -31 186 -1 14 -26 8 -156 -35 -85 -28 -155 -56 -155 -62 0 -8
-16 -7 -52 2 -31 8 -105 14 -177 14 -85 0 -122 3 -115 10 12 12 226 80 481
153 l183 52 6 33 c7 38 5 44 -16 32z m-1057 -507 c-7 -2 -19 -2 -25 0 -7 3 -2
5 12 5 14 0 19 -2 13 -5z m137 -24 c16 -10 2 -8 -75 11 -39 9 -39 9 10 4 28
-3 57 -10 65 -15z m615 -109 c-3 -5 -14 -10 -23 -9 -14 0 -13 2 3 9 27 11 27
11 20 0z m-85 -30 c0 -5 -2 -10 -4 -10 -3 0 -8 5 -11 10 -3 6 -1 10 4 10 6 0
11 -4 11 -10z m-100 -84 c0 -11 -19 -15 -25 -6 -3 5 1 10 9 10 9 0 16 -2 16
-4z m-397 -896 c3 -11 1 -18 -4 -14 -5 3 -9 12 -9 20 0 20 7 17 13 -6z"/>
<path d="M4695 3800 c-16 -11 -37 -17 -45 -14 -8 3 -11 2 -7 -2 4 -4 1 -14 -6
-22 -10 -13 -9 -14 13 -2 14 7 32 18 40 25 8 7 29 17 45 23 22 8 24 11 10 11
-11 1 -33 -8 -50 -19z"/>
<path d="M4595 3740 c4 -6 11 -8 16 -5 14 9 11 15 -7 15 -8 0 -12 -5 -9 -10z"/>
<path d="M2711 3058 c-68 -178 -184 -278 -356 -307 -77 -14 -197 -6 -259 15
-66 24 -74 -1 -21 -63 20 -23 62 -54 100 -73 56 -28 80 -34 158 -38 76 -3 103
0 157 18 127 42 227 134 265 245 27 74 30 235 5 220 -5 -3 -12 6 -17 20 -8 24
-10 21 -32 -37z"/>
<path d="M2683 2706 c-35 -30 -93 -69 -130 -88 -61 -30 -77 -33 -173 -36 -97
-4 -112 -2 -176 23 -38 15 -87 41 -108 56 -46 34 -62 27 -64 -28 -1 -24 5 -43
17 -54 104 -97 475 -128 774 -65 104 23 173 46 194 66 12 10 24 16 28 12 4 -4
5 5 3 21 -3 15 -1 27 3 27 19 0 -17 41 -49 56 -39 18 -118 39 -186 49 -27 3
-54 9 -60 11 -6 2 -39 -20 -73 -50z"/>
<path d="M6340 1974 c0 -3 7 -12 15 -21 20 -19 32 -9 15 12 -12 15 -30 20 -30
9z"/>
<path d="M6058 1873 c7 -3 16 -2 19 1 4 3 -2 6 -13 5 -11 0 -14 -3 -6 -6z"/>
</g>
</svg>
