<?xml version="1.0" standalone="no"?>
<!DOCTYPE svg PUBLIC "-//W3C//DTD SVG 20010904//EN"
 "http://www.w3.org/TR/2001/REC-SVG-20010904/DTD/svg10.dtd">
<svg version="1.0" xmlns="http://www.w3.org/2000/svg"
 width="768.000000pt" height="768.000000pt" viewBox="0 0 768.000000 768.000000"
 preserveAspectRatio="xMidYMid meet">
<metadata>
Created by potrace 1.14, written by Peter Selinger 2001-2017
</metadata>
<g transform="translate(0.000000,768.000000) scale(0.100000,-0.100000)"
fill="#000000" stroke="none">
<path d="M0 3840 l0 -3840 3840 0 3840 0 0 3840 0 3840 -3840 0 -3840 0 0
-3840z m4155 3559 c658 -62 1293 -318 1870 -753 142 -107 444 -404 561 -552
403 -510 645 -1055 749 -1689 14 -82 25 -166 25 -187 l0 -38 -100 0 -100 0 0
26 c0 101 -75 462 -137 657 -216 684 -652 1291 -1222 1701 -398 287 -911 510
-1371 595 -240 45 -355 55 -610 55 -705 0 -1327 -191 -1930 -594 -439 -294
-846 -755 -1106 -1255 -97 -185 -172 -383 -256 -670 -10 -32 -20 -49 -28 -47
-8 2 -50 7 -93 12 -44 5 -81 11 -84 13 -6 7 47 199 93 336 260 769 827 1465
1541 1891 527 315 1042 471 1693 514 84 6 381 -3 505 -15z m-260 -363 c30 -20
52 -61 61 -112 11 -75 -69 -150 -149 -140 -42 5 -76 31 -108 82 -17 28 -18 38
-9 80 6 27 19 57 28 68 41 46 124 56 177 22z m-572 -148 c4 -29 3 -48 -3 -48
-11 0 -17 23 -24 100 -5 52 -4 53 8 25 7 -16 16 -51 19 -77z m1013 55 c-13
-92 -18 -113 -28 -113 -6 0 -8 14 -5 33 3 17 9 53 13 80 3 26 11 47 16 47 6 0
8 -18 4 -47z m-839 -60 c-3 -10 -5 -2 -5 17 0 19 2 27 5 18 2 -10 2 -26 0 -35z
m499 -1 c-12 -11 -18 7 -10 30 l8 23 4 -23 c2 -13 1 -26 -2 -30z m-436 19 c0
-11 -4 -23 -10 -26 -6 -4 -10 5 -10 19 0 14 5 26 10 26 6 0 10 -9 10 -19z
m100 -15 c0 -3 -7 -3 -15 0 -8 4 -15 13 -15 21 0 12 2 12 15 -1 8 -8 15 -17
15 -20z m-50 3 c0 -5 -4 -9 -10 -9 -5 0 -10 7 -10 16 0 8 5 12 10 9 6 -3 10
-10 10 -16z m434 6 c3 -8 1 -15 -4 -15 -6 0 -10 7 -10 15 0 8 2 15 4 15 2 0 6
-7 10 -15z m56 -6 c0 -11 -4 -17 -10 -14 -5 3 -10 13 -10 21 0 8 5 14 10 14 6
0 10 -9 10 -21z m77 -16 c-3 -10 -5 -4 -5 12 0 17 2 24 5 18 2 -7 2 -21 0 -30z
m-757 7 c0 -11 -4 -20 -10 -20 -5 0 -10 9 -10 20 0 11 5 20 10 20 6 0 10 -9
10 -20z m50 5 c0 -8 -4 -15 -10 -15 -5 0 -10 7 -10 15 0 8 5 15 10 15 6 0 10
-7 10 -15z m670 0 c0 -8 -4 -15 -10 -15 -5 0 -10 7 -10 15 0 8 5 15 10 15 6 0
10 -7 10 -15z m-770 -11 c0 -8 -5 -12 -10 -9 -6 4 -8 11 -5 16 9 14 15 11 15
-7z m17 -6 c-3 -8 -6 -5 -6 6 -1 11 2 17 5 13 3 -3 4 -12 1 -19z m840 0 c-3
-8 -6 -5 -6 6 -1 11 2 17 5 13 3 -3 4 -12 1 -19z m30 -10 c-3 -7 -5 -2 -5 12
0 14 2 19 5 13 2 -7 2 -19 0 -25z m29 -5 c-11 -11 -19 6 -11 24 8 17 8 17 12
0 3 -10 2 -21 -1 -24z m412 -31 c-6 -34 -15 -59 -19 -55 -7 7 2 62 17 112 11
35 12 -1 2 -57z m-1468 15 c0 -20 -25 1 -28 24 -2 23 -2 23 13 5 8 -11 15 -24
15 -29z m40 16 c0 -13 -3 -13 -15 -3 -8 7 -15 16 -15 21 0 5 7 6 15 3 8 -4 15
-13 15 -21z m1097 -15 c-3 -7 -5 -2 -5 12 0 14 2 19 5 13 2 -7 2 -19 0 -25z
m60 -5 c-3 -10 -5 -4 -5 12 0 17 2 24 5 18 2 -7 2 -21 0 -30z m-1250 12 c9
-25 -4 -29 -17 -6 -7 15 -7 21 0 21 6 0 13 -7 17 -15z m1220 -7 c-3 -8 -6 -5
-6 6 -1 11 2 17 5 13 3 -3 4 -12 1 -19z m-1433 -20 c18 -34 21 -58 7 -42 -9
10 -32 74 -26 74 2 0 11 -14 19 -32z m146 6 c0 -8 -4 -14 -10 -14 -5 0 -10 9
-10 21 0 11 5 17 10 14 6 -3 10 -13 10 -21z m40 5 c0 -5 -4 -9 -10 -9 -5 0
-10 7 -10 16 0 8 5 12 10 9 6 -3 10 -10 10 -16z m1330 7 c0 -8 -4 -18 -10 -21
-5 -3 -10 3 -10 14 0 12 5 21 10 21 6 0 10 -6 10 -14z m47 -28 c-3 -7 -5 -2
-5 12 0 14 2 19 5 13 2 -7 2 -19 0 -25z m-1817 -44 c16 -37 30 -74 30 -82 0
-26 -16 -1 -38 58 -11 30 -23 63 -27 73 -4 9 -4 17 -1 17 3 0 19 -30 36 -66z
m357 44 c-3 -8 -6 -5 -6 6 -1 11 2 17 5 13 3 -3 4 -12 1 -19z m1500 0 c-3 -8
-6 -5 -6 6 -1 11 2 17 5 13 3 -3 4 -12 1 -19z m-1544 -2 c6 -16 -2 -28 -14
-20 -12 7 -11 34 0 34 5 0 11 -6 14 -14z m1587 -6 c0 -5 -4 -10 -10 -10 -5 0
-10 5 -10 10 0 6 5 10 10 10 6 0 10 -4 10 -10z m44 -5 c3 -9 0 -15 -9 -15 -8
0 -15 7 -15 15 0 8 4 15 9 15 5 0 11 -7 15 -15z m-1714 -22 c0 -13 -3 -13 -15
-3 -8 7 -15 16 -15 21 0 5 7 6 15 3 8 -4 15 -13 15 -21z m-40 -2 c0 -6 -4 -13
-10 -16 -5 -3 -10 1 -10 9 0 9 5 16 10 16 6 0 10 -4 10 -9z m1830 -1 c0 -5 -4
-10 -10 -10 -5 0 -10 5 -10 10 0 6 5 10 10 10 6 0 10 -4 10 -10z m-1870 -15
c0 -8 -4 -15 -10 -15 -5 0 -10 7 -10 15 0 8 5 15 10 15 6 0 10 -7 10 -15z
m1897 -7 c-3 -8 -6 -5 -6 6 -1 11 2 17 5 13 3 -3 4 -12 1 -19z m47 -3 c3 -8 1
-15 -4 -15 -6 0 -10 7 -10 15 0 8 2 15 4 15 2 0 6 -7 10 -15z m-1974 -5 c0 -5
-4 -10 -9 -10 -6 0 -13 5 -16 10 -3 6 1 10 9 10 9 0 16 -4 16 -10z m2020 -17
c0 -13 -3 -13 -15 -3 -8 7 -12 16 -9 21 8 13 24 1 24 -18z m-2060 2 c0 -8 -7
-15 -15 -15 -8 0 -15 7 -15 15 0 8 7 15 15 15 8 0 15 -7 15 -15z m2100 -5 c0
-5 -4 -10 -10 -10 -5 0 -10 5 -10 10 0 6 5 10 10 10 6 0 10 -4 10 -10z m30
-10 c0 -5 -5 -10 -11 -10 -5 0 -7 5 -4 10 3 6 8 10 11 10 2 0 4 -4 4 -10z
m-2230 -20 c0 -11 -2 -20 -5 -20 -2 0 -9 9 -15 20 -9 16 -8 20 5 20 8 0 15 -9
15 -20z m2247 -2 c-3 -8 -6 -5 -6 6 -1 11 2 17 5 13 3 -3 4 -12 1 -19z m36 -5
c-3 -7 -6 -13 -8 -13 -2 0 -5 6 -8 13 -3 8 1 14 8 14 7 0 11 -6 8 -14z m246
-10 c-16 -44 -61 -123 -70 -123 -11 0 3 40 36 97 32 56 51 71 34 26z m-2634
-31 c-8 -8 -25 17 -25 38 0 9 6 6 16 -8 9 -13 13 -26 9 -30z m45 17 c0 -5 -4
-9 -10 -9 -5 0 -10 7 -10 16 0 8 5 12 10 9 6 -3 10 -10 10 -16z m2390 6 c0 -8
-4 -15 -10 -15 -5 0 -10 7 -10 15 0 8 5 15 10 15 6 0 10 -7 10 -15z m-629 -85
c5 0 9 -4 9 -10 0 -5 -11 -10 -24 -10 -19 0 -26 7 -31 30 -4 16 -1 37 5 47 10
15 11 15 6 1 -2 -9 -1 -29 4 -45 7 -25 9 -23 11 22 l2 50 4 -42 c2 -24 8 -43
14 -43z m75 65 c7 -16 -12 -72 -27 -81 -5 -2 -2 11 6 30 19 45 19 56 0 56 -11
0 -15 -11 -15 -37 0 -44 -5 -41 -14 10 -7 35 -5 37 19 37 14 0 28 -7 31 -15z
m614 -5 c0 -11 -4 -20 -10 -20 -5 0 -10 9 -10 20 0 11 5 20 10 20 6 0 10 -9
10 -20z m-2537 -4 c3 -8 3 -17 0 -20 -7 -7 -33 13 -33 25 0 15 27 10 33 -5z
m2577 -11 c0 -8 -4 -15 -10 -15 -5 0 -7 7 -4 15 4 8 8 15 10 15 2 0 4 -7 4
-15z m-2612 -14 c3 -8 -1 -12 -9 -9 -7 2 -15 10 -17 17 -3 8 1 12 9 9 7 -2 15
-10 17 -17z m-268 0 c0 -5 18 -32 40 -60 22 -28 40 -58 40 -66 0 -14 -2 -14
-13 -3 -23 23 -87 138 -77 138 6 0 10 -4 10 -9z m220 -33 c0 -5 -4 -8 -10 -8
-5 0 -10 10 -10 23 0 18 2 19 10 7 5 -8 10 -18 10 -22z m-40 -11 c-1 -21 -1
-21 -15 -3 -8 10 -12 23 -9 28 9 14 24 -2 24 -25z m2810 4 c0 -6 -4 -13 -10
-16 -5 -3 -10 1 -10 9 0 9 5 16 10 16 6 0 10 -4 10 -9z m-2840 -17 c0 -8 -4
-12 -10 -9 -5 3 -10 10 -10 16 0 5 5 9 10 9 6 0 10 -7 10 -16z m2900 -4 c0 -5
-9 -14 -20 -20 -22 -12 -27 -1 -8 18 14 14 28 16 28 2z m-2950 -20 c0 -5 -5
-10 -11 -10 -5 0 -7 5 -4 10 3 6 8 10 11 10 2 0 4 -4 4 -10z m2980 -12 c0 -16
-3 -19 -11 -11 -6 6 -8 16 -5 22 11 17 16 13 16 -11z m49 -40 c1 -5 -3 -8 -9
-8 -5 0 -10 7 -10 16 0 9 -5 12 -12 8 -8 -5 -7 -1 2 10 13 17 14 17 21 -1 4
-10 8 -21 8 -25z m-3099 8 c0 -15 -24 -16 -37 -1 -4 4 -2 5 5 1 6 -4 12 -2 12
3 0 6 5 11 10 11 6 0 10 -6 10 -14z m3129 -13 c0 -25 -1 -25 -8 -8 -5 11 -7
23 -4 28 8 14 13 7 12 -20z m-3175 -9 c4 -10 1 -14 -6 -12 -15 5 -23 28 -10
28 5 0 13 -7 16 -16z m-46 -33 c3 -8 -1 -12 -9 -9 -7 2 -15 10 -17 17 -3 8 1
12 9 9 7 -2 15 -10 17 -17z m3377 -35 c-28 -49 -45 -65 -45 -45 0 13 63 99 68
94 2 -2 -8 -24 -23 -49z m-3435 -5 c-1 -13 -3 -13 -15 3 -19 26 -19 42 0 26 8
-7 15 -20 15 -29z m28 21 c6 -18 -15 -14 -22 4 -4 10 -1 14 6 12 6 -2 14 -10
16 -16z m-178 -131 c6 -13 10 -25 7 -27 -5 -5 -107 121 -107 133 0 11 86 -80
100 -106z m130 99 c0 -5 -4 -10 -10 -10 -5 0 -10 5 -10 10 0 6 5 10 10 10 6 0
10 -4 10 -10z m-35 -19 c3 -5 1 -12 -4 -15 -5 -3 -11 1 -15 9 -6 16 9 21 19 6z
m-32 -34 c-3 -5 -9 -3 -14 4 -4 7 -5 17 -2 22 3 5 9 3 14 -4 4 -7 5 -17 2 -22z
m-33 -13 c0 -9 -5 -14 -12 -12 -18 6 -21 28 -4 28 9 0 16 -7 16 -16z m3641
-17 c-10 -9 -11 -8 -5 6 3 10 9 15 12 12 3 -3 0 -11 -7 -18z m65 -12 c-3 -19
-16 -32 -16 -16 0 7 -4 9 -10 6 -5 -3 -10 -2 -10 4 0 8 15 18 32 20 3 1 5 -6
4 -14z m-3771 -36 c-6 -9 -35 -1 -35 10 0 4 3 11 7 14 8 9 34 -13 28 -24z
m3805 -4 c-7 -9 -15 -13 -17 -11 -7 7 7 26 19 26 6 0 6 -6 -2 -15z m-3844 -22
c-7 -7 -26 7 -26 19 0 6 6 6 15 -2 9 -7 13 -15 11 -17z m-36 -13 c0 -5 -2 -10
-4 -10 -3 0 -8 5 -11 10 -3 6 -1 10 4 10 6 0 11 -4 11 -10z m3930 1 c0 -6 -4
-13 -10 -16 -5 -3 -10 1 -10 9 0 9 5 16 10 16 6 0 10 -4 10 -9z m109 -41 c-39
-46 -59 -61 -59 -43 0 6 90 91 98 93 2 0 -16 -22 -39 -50z m-4069 11 c0 -6 -4
-13 -10 -16 -5 -3 -10 1 -10 9 0 9 5 16 10 16 6 0 10 -4 10 -9z m4002 -23 c-9
-9 -12 -7 -12 12 0 19 3 21 12 12 9 -9 9 -15 0 -24z m-4038 3 c7 -10 -18 -34
-27 -25 -7 8 3 34 13 34 5 0 11 -4 14 -9z m-47 -49 c-9 -2 -15 -8 -12 -13 4
-5 1 -9 -4 -9 -14 0 -14 13 1 28 6 6 16 8 22 4 7 -4 4 -8 -7 -10z m473 -27 c0
-8 -7 -15 -15 -15 -8 0 -15 7 -15 15 0 8 7 15 15 15 8 0 15 -7 15 -15z m77 0
c1 -5 -11 -10 -27 -11 -20 -1 -30 4 -30 13 0 16 51 15 57 -2z m2212 -3 c19 -9
44 -30 55 -45 21 -28 21 -34 24 -1068 l3 -1039 -168 0 -168 0 5 1048 c5 979 6
1050 23 1075 9 15 27 29 40 31 12 3 31 7 42 9 48 11 112 6 144 -11z m-2801
-13 c-2 -6 -8 -10 -13 -10 -5 0 -11 4 -13 10 -2 6 4 11 13 11 9 0 15 -5 13
-11z m3422 -3 c-14 -18 -10 -58 8 -64 6 -2 16 7 21 20 6 12 10 16 10 8 0 -27
-14 -45 -34 -45 -15 0 -21 8 -23 33 -3 29 11 62 25 62 3 0 0 -7 -7 -14z m61
-9 c-10 -9 -11 -8 -5 6 3 10 9 15 12 12 3 -3 0 -11 -7 -18z m764 3 c-3 -5 -11
-10 -16 -10 -6 0 -7 5 -4 10 3 6 11 10 16 10 6 0 7 -4 4 -10z m-2341 -16 c3
-9 6 -31 6 -50 0 -29 -3 -34 -25 -34 -20 0 -25 6 -31 36 -4 23 -2 39 6 47 10
10 12 7 7 -11 -7 -30 1 -52 19 -52 16 0 19 46 4 55 -12 8 -13 25 -1 25 5 0 12
-7 15 -16z m46 10 c0 -3 -7 -12 -15 -20 -12 -13 -15 -13 -15 -1 0 7 3 17 7 20
8 8 23 9 23 1z m1570 -18 c0 -13 -9 -34 -20 -47 l-20 -24 15 30 c8 17 15 38
15 48 0 9 2 17 5 17 3 0 5 -11 5 -24z m-3686 -35 c27 -27 47 -54 45 -59 -2 -6
-28 16 -57 49 -64 71 -56 79 12 10z m126 39 c0 -5 -4 -10 -10 -10 -5 0 -10 5
-10 10 0 6 5 10 10 10 6 0 10 -4 10 -10z m2020 -34 c0 -41 -23 -64 -45 -46 -8
7 -15 18 -14 24 0 7 2 6 6 -1 15 -39 51 7 38 48 -5 15 -4 19 4 15 6 -4 11 -22
11 -40z m2379 8 c-34 -36 -59 -49 -59 -30 0 9 11 18 25 22 13 3 29 12 36 20 6
8 14 14 17 14 3 0 -5 -12 -19 -26z m-59 12 c0 -2 -7 -9 -15 -16 -13 -11 -14
-10 -9 4 5 14 24 23 24 12z m-4390 -31 c10 -12 10 -15 -4 -15 -9 0 -16 7 -16
15 0 8 2 15 4 15 2 0 9 -7 16 -15z m4113 7 c-7 -4 -13 -17 -14 -27 -4 -42 1
-55 22 -55 19 0 21 5 18 44 -3 35 -1 42 8 34 16 -13 17 -60 1 -76 -17 -17 -55
-15 -62 4 -15 39 0 84 29 84 5 0 5 -4 -2 -8z m341 -47 c-4 -8 -9 -15 -13 -15
-4 0 -8 7 -8 15 0 8 6 15 13 15 8 0 11 -6 8 -15z m-4520 -24 c3 -5 -1 -14 -8
-20 -12 -10 -13 -8 -9 8 6 23 9 25 17 12z m4561 -31 c-3 -5 -11 -10 -16 -10
-6 0 -7 5 -4 10 3 6 11 10 16 10 6 0 7 -4 4 -10z m30 -40 c-3 -5 -11 -10 -16
-10 -6 0 -7 5 -4 10 3 6 11 10 16 10 6 0 7 -4 4 -10z m45 -49 c0 -6 -4 -11
-10 -11 -5 0 -10 7 -10 15 0 10 -6 12 -17 8 -16 -6 -16 -5 -5 10 12 14 16 14
28 2 8 -7 14 -18 14 -24z m-4720 19 c0 -5 -4 -10 -10 -10 -5 0 -10 5 -10 10 0
6 5 10 10 10 6 0 10 -4 10 -10z m298 -2 c7 -7 12 -29 12 -50 0 -33 -3 -38 -24
-38 -26 0 -37 18 -35 58 1 23 3 21 8 -8 9 -50 41 -55 41 -6 0 23 -6 39 -17 45
-10 6 -13 11 -7 11 5 0 15 -5 22 -12z m-338 -45 c0 -22 -14 -14 -32 17 l-17
30 24 -17 c13 -10 25 -24 25 -30z m390 43 c0 -3 -4 -8 -10 -11 -5 -3 -10 -1
-10 4 0 6 5 11 10 11 6 0 10 -2 10 -4z m4413 -45 c-20 -24 -33 -27 -33 -8 0
13 40 39 48 32 2 -2 -5 -13 -15 -24z m-4385 -6 c-3 -3 -9 2 -12 12 -6 14 -5
15 5 6 7 -7 10 -15 7 -18z m1156 0 c14 -13 31 -36 36 -50 6 -17 10 -351 10
-911 l0 -884 -165 0 -165 0 0 890 c0 771 2 895 15 920 26 50 50 60 151 60 83
0 93 -2 118 -25z m-1179 -25 c3 -5 1 -10 -4 -10 -6 0 -11 5 -11 10 0 6 2 10 4
10 3 0 8 -4 11 -10z m4429 -6 c21 -8 21 -24 0 -24 -8 0 -13 4 -10 9 4 5 0 12
-6 14 -7 3 -10 6 -6 6 3 1 13 -2 22 -5z m-5007 -76 c-3 -8 -6 -5 -6 6 -1 11 2
17 5 13 3 -3 4 -12 1 -19z m14 -65 c0 -27 2 -85 5 -131 7 -100 1 -132 -26
-132 -19 0 -20 7 -20 116 0 112 14 194 32 194 5 0 9 -21 9 -47z m5079 25 c0
-4 -4 -8 -9 -8 -6 0 -12 4 -15 8 -3 5 1 9 9 9 8 0 15 -4 15 -9z m-5168 -20
c-13 -13 -16 -32 -4 -24 4 2 9 -4 9 -15 1 -12 -3 -17 -10 -13 -7 3 -4 -1 5 -8
13 -11 17 -35 20 -109 3 -92 2 -94 -20 -97 -23 -4 -23 -2 -22 95 1 54 0 103 0
108 -5 26 3 71 13 77 16 10 23 0 9 -14z m4108 -12 c42 -6 79 -48 80 -91 1 -16
4 -96 6 -177 3 -96 1 -154 -6 -168 -6 -12 -7 -20 -1 -20 5 0 9 -9 8 -20 -1
-11 -5 -20 -9 -20 -4 0 -16 -12 -25 -27 -17 -25 -18 -73 -23 -583 l-5 -555
-333 -3 -333 -2 3 363 c3 332 5 365 21 391 26 39 74 56 162 56 71 0 77 -2 111
-33 31 -28 36 -40 44 -102 5 -39 10 -99 11 -135 6 -175 17 195 18 599 l1 445
26 38 c27 38 41 44 129 51 22 2 49 2 60 0 11 -1 36 -5 55 -7z m-4155 -78 c4
-46 5 -103 3 -128 -2 -37 -6 -45 -23 -45 -19 0 -20 6 -17 120 2 66 6 123 9
127 13 23 22 0 28 -74z m4731 -9 c9 -7 26 -18 38 -24 18 -9 22 -21 26 -100 3
-50 3 -196 0 -325 -3 -129 -2 -239 1 -243 4 -5 3 -25 -2 -45 -13 -58 -11 -709
2 -735 7 -13 8 -22 2 -24 -5 -2 -7 -17 -5 -34 3 -20 0 -34 -9 -40 -8 -5 -81
-9 -163 -9 l-148 0 4 764 c4 702 6 767 22 788 9 13 14 17 10 9 -4 -9 -2 -12 7
-9 8 3 13 12 12 19 -2 10 8 16 29 17 18 2 34 5 37 8 10 11 121 -4 137 -17z
m-4791 -31 c4 -24 5 -63 3 -88 -2 -37 -6 -45 -23 -45 -18 0 -20 8 -23 67 -4
99 30 152 43 66z m265 -58 c0 -73 -2 -80 -20 -80 -18 0 -20 7 -20 80 0 73 2
80 20 80 18 0 20 -7 20 -80z m5210 70 c0 -5 -4 -10 -10 -10 -5 0 -10 5 -10 10
0 6 5 10 10 10 6 0 10 -4 10 -10z m-3320 -89 c0 -15 -7 -36 -15 -47 -15 -19
-15 -19 -30 0 -8 11 -14 31 -14 45 1 21 2 22 6 6 10 -45 12 -48 28 -35 18 15
19 51 3 70 -11 12 -10 12 5 1 9 -7 17 -26 17 -40z m46 -6 c-4 -14 -10 -25 -15
-25 -5 0 -4 13 2 30 13 35 22 32 13 -5z m-22 -50 c-4 -8 -8 -15 -10 -15 -2 0
-4 7 -4 15 0 8 4 15 10 15 5 0 7 -7 4 -15z m1600 -20 c66 -61 -3 -179 -86
-144 -65 27 -73 114 -15 150 43 25 69 24 101 -6z m-3816 -46 c30 -17 52 -33
49 -36 -5 -5 -94 41 -111 58 -20 19 10 8 62 -22z m5598 18 c-11 -7 -34 -25
-53 -41 -18 -15 -33 -23 -33 -18 0 12 79 71 95 71 6 0 1 -6 -9 -12z m-2602
-43 c3 -9 6 -31 6 -50 0 -32 -2 -35 -27 -32 -14 2 -28 10 -30 18 -4 12 -3 13
5 1 17 -24 34 -1 30 40 -4 40 5 52 16 23z m46 1 c-7 -8 -18 -15 -24 -15 -6 0
-2 7 8 15 25 19 32 19 16 0z m2127 -11 c46 -29 36 -102 -18 -129 -38 -20 -61
-19 -87 5 -45 42 -40 99 11 131 33 19 55 18 94 -7z m-2202 -5 c11 -17 -1 -21
-15 -4 -8 9 -8 15 -2 15 6 0 14 -5 17 -11z m95 -33 c0 -37 -25 -56 -44 -35 -8
9 -7 10 6 6 25 -9 33 12 12 29 -18 15 -18 15 0 10 13 -5 17 -2 12 9 -3 8 -1
15 4 15 6 0 10 -15 10 -34z m2510 -1 c0 -2 -7 -5 -15 -9 -9 -3 -15 0 -15 9 0
9 6 12 15 9 8 -4 15 -7 15 -9z m-5550 1 c0 -3 -4 -8 -10 -11 -5 -3 -10 -1 -10
4 0 6 5 11 10 11 6 0 10 -2 10 -4z m5560 -57 c0 -11 -5 -17 -10 -14 -6 4 -8
10 -5 15 3 4 -1 11 -7 13 -8 3 -6 6 5 6 11 1 17 -6 17 -20z m60 -99 c0 -5 -7
-10 -15 -10 -8 0 -15 5 -15 10 0 6 7 10 15 10 8 0 15 -4 15 -10z m-5715 -10
c3 -5 2 -10 -4 -10 -5 0 -13 5 -16 10 -3 6 -2 10 4 10 5 0 13 -4 16 -10z
m5745 -54 c0 -17 -26 -3 -27 14 -2 18 0 18 13 6 8 -8 14 -17 14 -20z m-5765 4
c3 -5 -1 -10 -9 -10 -9 0 -16 5 -16 10 0 6 4 10 9 10 6 0 13 -4 16 -10z m-16
-77 c2 -2 -5 -3 -17 -3 -14 0 -22 6 -22 16 0 14 3 15 18 3 9 -7 19 -15 21 -16z
m96 -18 c0 -38 -2 -40 -32 -43 -32 -3 -33 -2 -27 30 9 54 13 60 36 56 20 -3
23 -9 23 -43z m65 26 c22 -42 1 -89 -34 -75 -16 6 -24 73 -9 87 12 13 32 7 43
-12z m5730 -10 c0 -5 -7 -12 -16 -15 -14 -5 -15 -4 -4 9 14 17 20 19 20 6z
m-5951 -21 c40 -11 56 -30 26 -30 -18 0 -95 38 -95 46 0 3 6 4 14 1 8 -3 33
-11 55 -17z m278 -17 c-3 -3 -11 -2 -17 2 -9 6 -9 10 1 16 14 8 27 -7 16 -18z
m5633 12 c0 -10 -41 -25 -52 -19 -8 5 -5 10 8 15 22 9 44 11 44 4z m-3383 -27
c43 -47 43 -51 43 -497 l0 -431 -167 0 -166 0 6 128 c4 70 7 270 7 445 l0 319
29 29 c29 28 32 29 128 29 90 0 101 -2 120 -22z m-2517 -44 c0 -8 -4 -12 -10
-9 -5 3 -10 10 -10 16 0 5 5 9 10 9 6 0 10 -7 10 -16z m5895 6 c3 -5 -1 -10
-9 -10 -8 0 -18 5 -21 10 -3 6 1 10 9 10 8 0 18 -4 21 -10z m-5910 -30 c3 -5
-1 -10 -9 -10 -9 0 -16 5 -16 10 0 6 4 10 9 10 6 0 13 -4 16 -10z m5379 -11
c-1 -11 6 -15 21 -14 12 2 22 -2 23 -9 12 -86 16 -267 12 -507 l-5 -294 -24
-3 c-18 -3 -21 -6 -10 -12 8 -5 -46 -9 -130 -8 -86 0 -138 4 -130 9 11 7 10 9
-5 9 -13 0 -16 3 -8 13 6 7 10 154 11 397 2 255 6 389 13 397 6 7 7 13 2 14
-5 0 9 7 31 14 22 7 75 13 120 12 66 -2 80 -5 79 -18z m-2072 -47 l33 -32 2
-385 3 -385 -170 0 -170 0 0 365 c0 385 2 408 46 447 25 22 54 27 146 25 73
-2 80 -4 110 -35z m-3322 18 c0 -5 -4 -10 -10 -10 -5 0 -10 5 -10 10 0 6 5 10
10 10 6 0 10 -4 10 -10z m5944 1 c3 -5 0 -11 -8 -14 -8 -3 -17 1 -20 9 -6 15
19 20 28 5z m11 -51 c-3 -5 -1 -10 6 -10 7 0 10 -3 6 -6 -3 -4 -14 -3 -24 0
-15 6 -15 8 -3 16 19 12 23 12 15 0z m-5973 -32 c-6 -6 -16 -7 -22 -3 -9 6 -9
9 1 16 17 10 34 0 21 -13z m-12 -49 c0 -5 -4 -9 -10 -9 -5 0 -10 7 -10 16 0 8
5 12 10 9 6 -3 10 -10 10 -16z m6010 1 c0 -5 -4 -10 -9 -10 -6 0 -13 5 -16 10
-3 6 1 10 9 10 9 0 16 -4 16 -10z m-6020 -30 c0 -5 -7 -10 -16 -10 -8 0 -12 5
-9 10 3 6 10 10 16 10 5 0 9 -4 9 -10z m6030 -4 c0 -3 -4 -8 -10 -11 -5 -3
-10 -1 -10 4 0 6 5 11 10 11 6 0 10 -2 10 -4z m-5816 -59 c13 -50 -3 -75 -39
-61 -19 8 -21 80 -2 87 20 7 35 -3 41 -26z m71 -1 c10 -30 -2 -59 -28 -64 -22
-4 -33 42 -18 75 14 30 33 26 46 -11z m-295 14 c0 -5 -4 -10 -9 -10 -6 0 -13
5 -16 10 -3 6 1 10 9 10 9 0 16 -4 16 -10z m6051 -3 c-1 -12 -15 -9 -19 4 -3
6 1 10 8 8 6 -3 11 -8 11 -12z m-5925 -32 c0 -37 -10 -46 -20 -19 -10 27 -7
54 7 54 8 0 13 -13 13 -35z m-141 -5 c3 -5 -1 -10 -9 -10 -9 0 -16 5 -16 10 0
6 4 10 9 10 6 0 13 -4 16 -10z m365 0 c0 -5 -4 -10 -9 -10 -6 0 -13 5 -16 10
-3 6 1 10 9 10 9 0 16 -4 16 -10z m5711 -33 c-1 -12 -15 -9 -19 4 -3 6 1 10 8
8 6 -3 11 -8 11 -12z m-6081 -7 c0 -5 -4 -10 -9 -10 -6 0 -13 5 -16 10 -3 6 1
10 9 10 9 0 16 -4 16 -10z m-29 -30 c11 0 19 -6 19 -14 0 -12 -7 -12 -47 0
-56 17 -71 29 -24 20 18 -3 42 -6 52 -6z m6159 -15 c-47 -18 -60 -18 -60 0 0
11 12 15 48 14 l47 -1 -35 -13z m-12 -53 c2 -7 -3 -12 -12 -12 -9 0 -16 7 -16
16 0 17 22 14 28 -4z m-6138 -6 c0 -9 -7 -12 -20 -9 -11 3 -17 9 -14 14 8 14
34 10 34 -5z m6140 -47 c0 -5 -7 -9 -15 -9 -15 0 -20 12 -9 23 8 8 24 -1 24
-14z m-6155 -9 c3 -5 -1 -10 -9 -10 -9 0 -16 5 -16 10 0 6 4 10 9 10 6 0 13
-4 16 -10z m6165 -35 c0 -8 -7 -15 -15 -15 -8 0 -15 7 -15 15 0 8 7 15 15 15
8 0 15 -7 15 -15z m-6170 -5 c0 -5 -4 -10 -9 -10 -6 0 -13 5 -16 10 -3 6 1 10
9 10 9 0 16 -4 16 -10z m6175 -50 c3 -5 -1 -10 -9 -10 -9 0 -16 5 -16 10 0 6
4 10 9 10 6 0 13 -4 16 -10z m-6188 -6 c-3 -3 -12 -4 -19 -1 -8 3 -5 6 6 6 11
1 17 -2 13 -5z m267 -30 c22 -8 22 -82 1 -90 -23 -9 -45 15 -45 51 0 43 10 52
44 39z m80 0 c22 -8 20 -57 -3 -78 -17 -16 -20 -16 -35 -1 -19 19 -20 38 -6
66 11 20 19 23 44 13z m-349 -24 c3 -5 -3 -10 -14 -10 -12 0 -21 5 -21 10 0 6
6 10 14 10 8 0 18 -4 21 -10z m6190 0 c3 -5 2 -10 -4 -10 -5 0 -13 5 -16 10
-3 6 -2 10 4 10 5 0 13 -4 16 -10z m-5770 -30 c3 -5 2 -10 -4 -10 -5 0 -13 5
-16 10 -3 6 -2 10 4 10 5 0 13 -4 16 -10z m-418 -13 c11 -12 0 -13 -59 -9 -32
2 -58 8 -58 14 0 11 105 6 117 -5z m6273 6 c0 -5 -25 -9 -55 -11 -34 -2 -55 1
-55 8 0 6 23 10 55 10 30 0 55 -3 55 -7z m-72 -67 c-1 -14 -6 -22 -10 -20 -12
7 -10 44 2 44 5 0 9 -11 8 -24z m-6218 4 c0 -5 -4 -10 -10 -10 -5 0 -10 5 -10
10 0 6 5 10 10 10 6 0 10 -4 10 -10z m6227 -46 c-3 -3 -12 -4 -19 -1 -8 3 -5
6 6 6 11 1 17 -2 13 -5z m-6227 -14 c0 -5 -7 -10 -16 -10 -8 0 -12 5 -9 10 3
6 10 10 16 10 5 0 9 -4 9 -10z m6227 -6 c-3 -3 -12 -4 -19 -1 -8 3 -5 6 6 6
11 1 17 -2 13 -5z m443 -94 l0 -90 -100 0 -100 0 0 90 0 90 100 0 100 0 0 -90z
m-6673 43 c-3 -3 -10 -2 -16 2 -7 4 -7 10 2 20 10 11 13 11 15 -2 2 -8 1 -17
-1 -20z m6233 12 c0 -8 -7 -15 -15 -15 -8 0 -15 7 -15 15 0 8 7 15 15 15 8 0
15 -7 15 -15z m-9 -42 c-11 -5 -11 -7 0 -14 11 -7 10 -9 -3 -9 -10 0 -18 7
-18 15 0 8 8 15 18 14 12 0 13 -2 3 -6z m-6226 -13 c-3 -5 -10 -10 -16 -10 -5
0 -9 5 -9 10 0 6 7 10 16 10 8 0 12 -4 9 -10z m5 -30 c0 -5 -7 -10 -15 -10 -8
0 -15 5 -15 10 0 6 7 10 15 10 8 0 15 -4 15 -10z m6230 0 c0 -5 -7 -10 -15
-10 -8 0 -15 5 -15 10 0 6 7 10 15 10 8 0 15 -4 15 -10z m-6230 -36 c0 -2 -7
-4 -15 -4 -8 0 -15 4 -15 10 0 5 7 7 15 4 8 -4 15 -8 15 -10z m6230 6 c0 -5
-4 -10 -10 -10 -5 0 -10 5 -10 10 0 6 5 10 10 10 6 0 10 -4 10 -10z m80 -41
c0 -5 -27 -9 -60 -9 -53 0 -70 7 -56 21 8 8 116 -3 116 -12z m-6300 1 c0 -6
-28 -10 -65 -10 -37 0 -65 4 -65 10 0 6 28 10 65 10 37 0 65 -4 65 -10z m2970
-59 c0 -26 -16 -43 -36 -39 -23 4 -32 62 -13 85 12 13 15 13 31 -7 10 -12 18
-30 18 -39z m-2280 39 c0 -16 -33 -80 -42 -80 -11 0 -10 7 7 40 15 28 14 30
-5 30 -11 0 -20 5 -20 10 0 6 14 10 30 10 17 0 30 -4 30 -10z m378 -38 c3 -40
2 -43 -20 -40 -17 2 -24 11 -26 31 -5 39 5 59 25 55 13 -2 19 -15 21 -46z
m366 32 c17 -44 -8 -101 -32 -72 -10 13 -14 66 -5 81 8 13 31 8 37 -9z m362
-8 c9 -37 1 -61 -22 -64 -16 -2 -23 4 -28 23 -4 15 -4 35 -1 46 9 28 43 24 51
-5z m378 8 c17 -43 -12 -96 -40 -73 -8 6 -14 16 -14 21 0 6 6 5 14 -1 12 -10
17 -8 26 8 6 12 7 21 1 21 -5 0 -12 -6 -14 -12 -4 -8 -6 -7 -6 4 -1 9 5 18 12
21 6 2 9 8 5 12 -4 4 -14 2 -23 -5 -13 -11 -14 -10 -9 4 8 21 40 21 48 0z
m394 -28 c2 -24 -2 -42 -9 -47 -15 -9 -39 7 -39 25 0 6 4 5 9 -3 11 -17 31 -6
31 17 0 15 -2 15 -10 2 -8 -13 -10 -12 -10 3 0 9 5 17 11 17 5 0 7 5 3 12 -5
7 -11 5 -21 -7 -10 -15 -13 -16 -13 -4 0 21 11 30 30 27 10 -2 16 -17 18 -42z
m776 28 c10 -27 7 -61 -8 -73 -31 -26 -63 48 -34 77 17 17 35 15 42 -4z m382
-8 c9 -38 -4 -68 -29 -64 -24 3 -32 26 -23 64 9 32 44 32 52 0z m390 0 c9 -37
1 -61 -22 -64 -26 -4 -40 38 -24 68 15 27 38 25 46 -4z m364 4 c13 -24 4 -66
-16 -74 -8 -3 -21 5 -30 20 -14 20 -15 30 -6 49 14 30 37 32 52 5z m316 -4 c9
-38 1 -61 -23 -64 -25 -4 -38 26 -29 64 8 32 43 32 52 0z m319 -5 c6 -29 -8
-71 -23 -71 -14 0 -32 23 -32 40 1 12 2 12 11 -2 15 -27 29 -21 29 12 0 22 -5
30 -17 29 -11 0 -13 -3 -5 -6 6 -2 12 -11 12 -20 0 -13 -2 -13 -15 1 -18 18
-9 46 15 46 12 0 21 -10 25 -29z m335 25 c0 -2 -9 -6 -20 -9 -11 -3 -20 -1
-20 4 0 5 9 9 20 9 11 0 20 -2 20 -4z m8 -48 c-2 -25 -8 -34 -25 -36 -13 -2
-23 1 -23 7 0 6 7 8 15 5 8 -4 15 -1 15 5 0 6 -4 11 -10 11 -14 0 -12 27 3 33
24 10 28 6 25 -25z m759 -14 c-3 -3 -12 -4 -19 -1 -8 3 -5 6 6 6 11 1 17 -2
13 -5z m0 -30 c-3 -3 -12 -4 -19 -1 -8 3 -5 6 6 6 11 1 17 -2 13 -5z m3 -33
c0 -5 -7 -11 -15 -15 -9 -3 -15 0 -15 9 0 8 7 15 15 15 8 0 15 -4 15 -9z m-10
-41 c0 -5 -2 -10 -4 -10 -3 0 -8 5 -11 10 -3 6 -1 10 4 10 6 0 11 -4 11 -10z
m0 -45 c0 -8 -7 -15 -15 -15 -8 0 -15 7 -15 15 0 8 7 15 15 15 8 0 15 -7 15
-15z m-5578 -15 c59 -17 125 -81 142 -138 6 -18 -2 -14 -37 21 -86 83 -206 90
-287 15 -14 -13 -33 -29 -42 -37 -16 -12 -17 -11 -7 18 15 41 63 89 114 112
46 21 66 23 117 9z m586 -36 c46 -19 97 -67 113 -106 12 -30 13 -30 73 -24 34
4 275 15 536 26 984 40 1090 42 1128 22 31 -18 28 -28 -10 -29 -18 -1 -84 -5
-146 -9 l-113 -6 45 -48 c46 -49 76 -98 76 -125 0 -10 -10 -5 -29 17 -43 49
-130 105 -184 119 -111 27 -210 -6 -309 -104 -46 -46 -59 -55 -53 -37 14 47
37 85 73 123 l36 37 -54 0 c-30 0 -262 -9 -515 -20 -570 -25 -518 -25 -530 3
-6 12 -39 41 -73 65 -59 39 -69 42 -130 42 -72 0 -134 -22 -171 -59 -21 -21
-21 -21 -21 -1 0 12 17 39 38 61 59 64 145 85 220 53z m4989 -9 c0 -8 -6 -15
-14 -15 -7 0 -13 7 -13 15 0 8 6 15 13 15 8 0 14 -7 14 -15z m-2759 -22 c152
-11 63 -23 -185 -23 -142 0 -244 4 -248 9 -10 17 279 26 433 14z m1098 -48
c41 -24 64 -51 64 -74 0 -6 -15 -2 -32 9 -65 37 -122 45 -196 25 -37 -10 -79
-28 -93 -42 l-26 -24 -254 21 c-140 11 -294 25 -344 30 -49 5 -119 12 -155 16
-91 8 -101 12 -70 29 42 23 91 27 201 16 112 -12 403 -36 562 -47 91 -6 100
-5 120 14 59 56 154 67 223 27z m1690 5 c8 0 14 -5 14 -11 0 -16 -83 -7 -88
10 -4 11 3 13 28 8 18 -4 39 -7 46 -7z m-6226 -21 c-38 -10 -80 -10 -80 0 0
10 78 19 95 11 5 -2 -1 -7 -15 -11z m1210 -34 c49 -52 13 -145 -56 -145 -28 0
-84 49 -84 74 0 25 20 70 37 84 28 21 77 15 103 -13z m-280 -16 c0 -6 -5 -19
-10 -30 -9 -15 -22 -19 -70 -19 -56 0 -60 1 -60 23 0 13 3 27 7 30 11 12 133
8 133 -4z m3850 -19 c52 -5 169 -14 260 -19 91 -6 221 -16 290 -21 227 -18
614 -49 700 -55 l86 -7 -4 -34 c-5 -41 0 -40 -217 -20 -82 8 -217 20 -300 26
-128 9 -293 25 -460 44 l-40 5 38 -14 c51 -19 91 -49 123 -91 34 -44 25 -54
-18 -22 -56 42 -96 59 -161 65 -91 8 -161 -15 -237 -78 -65 -54 -78 -47 -31
17 42 58 73 83 126 103 l47 18 -78 6 c-177 15 -284 31 -284 43 0 7 -3 19 -6
28 -7 19 22 20 166 6z m-429 -58 c23 -60 -34 -110 -73 -62 -26 32 -23 65 8 89
30 24 49 16 65 -27z m-4205 -155 c44 -24 259 -135 479 -247 220 -112 416 -213
435 -225 64 -40 273 -149 267 -139 -3 5 3 10 13 10 14 0 16 -4 9 -13 -8 -8 -3
-16 18 -26 15 -8 34 -12 42 -9 9 3 11 0 6 -8 -5 -9 -4 -11 4 -6 9 6 9 11 -1
24 -11 13 -10 15 5 9 10 -4 17 -2 18 6 0 9 2 9 6 0 2 -7 9 -13 15 -13 6 0 8 6
5 13 -3 7 2 22 10 32 13 17 15 17 10 3 -7 -21 -3 -22 24 -7 11 5 17 14 14 20
-4 5 2 12 12 16 23 8 43 35 36 47 -9 14 18 24 46 17 14 -4 40 -5 56 -3 26 4
28 5 10 12 -19 8 -19 9 3 9 12 1 22 6 22 11 0 6 15 10 33 9 17 0 26 -3 18 -6
-16 -6 -51 -40 -51 -49 0 -4 7 -1 15 6 8 7 21 10 28 7 8 -3 20 -1 28 5 11 8
10 9 -3 4 -10 -3 -18 -2 -18 3 0 5 35 12 78 16 42 4 82 10 87 15 17 13 75 17
76 6 0 -6 3 -5 6 2 3 7 21 19 41 28 33 14 34 15 16 27 -41 27 -71 36 -83 24
-8 -8 -11 -8 -11 2 0 7 -4 9 -10 6 -15 -9 -12 3 7 36 10 16 23 27 30 25 7 -3
13 -1 13 4 0 5 13 7 28 4 16 -3 48 0 73 6 24 7 64 12 89 12 34 0 39 2 20 7
-21 6 -22 8 -7 14 9 3 29 1 43 -5 22 -10 28 -8 51 14 l25 26 -28 -4 c-16 -2
-22 -1 -14 2 8 4 21 13 28 22 11 14 12 14 12 -1 0 -9 5 -17 11 -17 5 0 7 -5 3
-12 -4 -6 -3 -8 4 -4 6 3 17 0 25 -8 8 -8 17 -13 20 -10 3 3 12 -3 19 -15 7
-12 19 -21 27 -21 8 0 12 -3 9 -6 -6 -6 -96 -18 -140 -19 -16 0 -28 -4 -28 -9
0 -4 -11 -6 -25 -4 -13 3 -22 1 -19 -3 3 -5 0 -9 -5 -9 -6 0 -11 -4 -11 -9 0
-11 115 -61 140 -61 10 0 21 -4 24 -8 3 -5 56 -9 118 -10 62 0 113 -1 113 -2
0 -1 15 -3 32 -4 18 -2 30 0 27 6 -3 5 6 6 22 2 16 -4 34 -7 40 -7 7 0 8 -13
3 -41 -24 -120 -2 -260 57 -379 44 -88 151 -197 238 -243 l58 -31 -153 -6
c-185 -6 -265 -21 -285 -52 -21 -33 -9 -75 22 -75 13 0 24 -4 24 -9 0 -7 40
-26 65 -31 3 0 20 -7 40 -16 19 -8 35 -11 35 -8 0 4 7 1 15 -6 9 -7 33 -13 53
-12 20 1 66 -6 102 -15 98 -25 573 -25 607 0 7 5 20 7 28 3 8 -3 15 0 15 6 0
9 3 9 11 1 7 -7 21 -8 45 0 26 8 36 18 45 46 6 20 25 62 40 95 16 32 29 59 29
61 0 1 -35 6 -77 9 -43 4 -107 9 -142 13 l-65 6 60 30 c36 18 86 57 130 102
87 88 137 183 161 304 14 72 15 95 4 170 -7 47 -23 113 -37 146 -14 33 -26 65
-28 72 -1 7 -10 20 -19 31 -9 10 -14 22 -10 25 3 4 1 7 -5 7 -7 0 -12 6 -12
14 0 8 -12 23 -27 34 -24 18 -26 23 -14 34 8 7 11 8 7 1 -3 -6 7 -25 24 -41
16 -17 30 -25 30 -19 0 7 5 4 11 -5 5 -10 16 -15 24 -12 9 4 15 0 15 -7 0 -7
7 -3 16 9 8 12 23 22 33 22 10 0 21 3 25 8 13 13 74 8 69 -5 -3 -8 -14 -11
-29 -7 -30 8 -31 -4 -1 -15 14 -6 31 -4 47 4 21 11 29 11 45 -1 11 -8 28 -13
37 -10 10 2 21 0 24 -5 3 -5 12 -2 20 6 21 21 40 19 23 -2 -13 -15 -11 -16 24
-9 31 6 37 4 38 -11 0 -10 3 -13 5 -8 2 6 20 9 39 7 19 -2 32 -8 29 -13 -3 -5
0 -9 5 -9 6 0 11 9 11 20 0 14 7 20 21 20 13 0 18 4 13 12 -5 7 -3 8 5 4 9 -6
8 -13 -6 -28 -18 -21 -18 -21 22 -13 22 4 42 10 45 15 7 10 70 18 70 8 0 -4
-8 -8 -19 -8 -10 0 -32 -7 -47 -16 l-29 -15 44 6 c35 6 42 5 37 -6 -4 -8 -2
-7 6 2 20 24 45 29 58 13 14 -16 50 -19 50 -4 0 5 6 7 14 4 8 -3 12 -12 10
-19 -6 -15 26 -24 99 -27 45 -2 58 -10 37 -23 -6 -3 -10 -1 -10 6 0 7 -2 10
-5 7 -3 -3 -2 -13 1 -22 4 -11 9 -14 13 -7 5 7 20 -1 40 -21 19 -18 52 -45 74
-60 l40 -26 -49 -7 c-236 -30 -242 -48 -27 -85 125 -22 391 -28 436 -11 12 5
48 15 81 22 32 7 68 21 80 31 l21 17 -23 1 c-13 0 -21 3 -19 8 3 4 -14 7 -36
8 -23 0 -73 4 -110 8 l-68 8 40 28 c21 16 42 34 46 40 3 5 11 7 17 4 6 -4 8
-3 5 3 -3 5 2 16 12 25 16 14 19 13 29 -3 17 -27 14 -38 -3 -15 -8 11 -15 15
-15 10 0 -6 11 -21 25 -34 22 -21 30 -20 26 3 0 4 6 7 14 7 8 0 15 -4 15 -10
0 -5 7 -10 15 -10 8 0 15 -4 15 -10 0 -5 8 -10 18 -11 14 0 14 -2 2 -7 -20 -9
-23 -45 -3 -38 8 3 24 6 36 6 16 0 18 3 9 9 -10 6 -7 10 12 13 14 3 23 1 20
-3 -3 -5 -1 -9 5 -9 5 0 13 5 16 10 9 15 25 2 18 -15 -7 -19 33 -21 41 -2 3 6
3 2 0 -10 -5 -20 -2 -23 26 -23 23 0 33 -5 37 -19 3 -12 17 -21 40 -26 23 -4
33 -11 30 -20 -3 -7 3 -16 16 -20 21 -6 21 -7 3 -14 -17 -7 -18 -8 -3 -14 12
-5 19 1 23 19 6 24 7 24 20 5 8 -11 11 -27 7 -38 -7 -17 -6 -17 11 -1 9 10 14
22 11 28 -12 19 12 10 31 -12 10 -12 13 -18 7 -14 -7 4 -13 5 -13 2 0 -2 -3
-13 -6 -23 -5 -15 -4 -15 5 -3 8 12 11 12 11 2 0 -8 -9 -16 -20 -19 -11 -3
-17 -9 -14 -15 3 -5 0 -15 -6 -23 -7 -8 -10 -15 -7 -15 3 0 0 -15 -8 -34 -14
-34 -14 -35 18 -60 35 -28 23 -35 -22 -11 l-28 14 -52 -87 c-174 -289 -407
-560 -671 -781 -161 -134 -218 -171 -252 -164 -16 3 -28 8 -28 12 0 3 -12 7
-26 7 -14 1 -33 9 -42 17 -9 8 -27 17 -39 19 -21 3 -20 5 18 83 40 81 59 156
59 227 0 49 -32 190 -38 165 -3 -14 -12 -8 -40 30 -117 154 -249 224 -421 224
-182 -1 -319 -76 -451 -249 -41 -53 -49 -72 -55 -122 -10 -90 10 -189 60 -286
40 -79 41 -87 9 -83 -3 0 -14 -9 -23 -20 -10 -11 -21 -18 -24 -15 -6 6 -18 -3
-58 -38 -10 -10 -19 -13 -19 -8 0 6 -13 -4 -29 -22 -31 -36 -55 -104 -40 -114
5 -3 7 -10 3 -15 -3 -5 4 -26 15 -45 12 -19 21 -41 21 -48 0 -36 27 -40 232
-37 321 4 404 -18 150 -39 -157 -13 -272 -17 -272 -9 0 3 -48 9 -107 12 -208
10 -406 81 -537 192 -56 48 -67 54 -61 34 3 -13 9 -33 12 -44 3 -11 20 -41 39
-67 36 -50 31 -70 -12 -48 -20 11 -27 11 -43 -4 -12 -11 -21 -14 -26 -7 -3 6
-13 11 -21 11 -9 0 -22 7 -30 15 -8 8 -22 11 -31 8 -11 -4 -14 -3 -9 5 4 7 16
12 27 12 10 0 19 4 19 10 0 5 11 12 25 16 14 3 25 10 25 15 0 5 7 9 15 9 31 0
13 18 -42 43 -54 24 -252 105 -568 232 -71 29 -233 95 -360 148 -126 52 -417
172 -645 267 -457 189 -926 388 -950 403 -14 8 -60 78 -60 91 0 7 40 -8 334
-128 200 -81 262 -103 277 -96 10 6 26 10 36 9 13 -1 12 -3 -5 -7 -38 -11 -30
-27 13 -29 22 0 34 1 26 4 -9 4 -2 11 19 20 l34 14 -42 20 -41 21 17 26 17 27
-27 -18 c-30 -19 -34 -16 -18 13 7 13 7 21 0 25 -6 4 -8 16 -4 27 5 17 3 19
-18 13 l-23 -7 23 20 c21 18 21 21 5 24 -11 2 -1 8 25 15 39 10 46 9 63 -8 11
-11 19 -14 19 -7 0 9 3 9 12 0 7 -7 20 -12 30 -12 10 0 18 -4 18 -10 0 -5 3
-9 8 -9 20 3 42 -2 54 -13 7 -7 20 -14 28 -16 17 -4 156 -63 300 -127 52 -24
136 -59 185 -80 50 -20 104 -43 120 -50 17 -8 77 -34 135 -58 159 -68 331
-143 470 -205 148 -65 222 -94 215 -82 -3 5 -21 14 -40 20 -20 6 -71 29 -115
51 -45 21 -83 39 -85 39 -4 0 -137 63 -350 165 -118 57 -266 125 -271 125 -2
0 -83 39 -181 86 -98 47 -188 90 -200 95 -13 5 -23 13 -23 19 0 6 -4 9 -9 5
-6 -3 -24 3 -41 14 -47 28 -22 32 35 5 28 -13 91 -41 140 -62 50 -22 203 -91
340 -154 255 -117 600 -274 780 -355 116 -53 142 -64 372 -171 159 -74 183
-82 183 -61 0 4 -143 79 -318 166 -305 153 -362 180 -647 311 -71 33 -202 95
-290 137 -210 102 -731 352 -867 418 -120 57 -127 67 -85 127 l22 33 -100 52
c-76 40 -643 329 -868 443 -24 12 -47 40 -47 56 0 10 4 8 86 -37z m1722 18
c49 -21 112 -83 112 -111 0 -23 0 -22 -30 5 -44 39 -121 65 -176 57 -48 -6
-113 -36 -133 -60 -8 -9 -17 -16 -22 -16 -19 0 -8 31 23 66 60 68 148 91 226
59z m1591 -21 c36 -8 73 -18 81 -21 8 -4 18 -5 23 -5 4 1 7 -2 7 -7 0 -5 10
-13 23 -17 12 -3 31 -14 41 -23 16 -13 18 -13 11 -1 -4 8 -5 12 0 8 4 -4 15
-2 23 5 11 8 14 8 9 0 -4 -7 5 -20 23 -33 21 -15 29 -28 25 -39 -3 -11 3 -25
15 -36 31 -28 77 -107 85 -145 l7 -35 -33 40 c-165 199 -432 280 -664 203
-125 -41 -242 -126 -314 -227 -28 -39 -31 -41 -31 -19 0 56 127 243 188 276
73 40 128 64 175 77 71 19 226 19 306 -1z m1715 -15 c87 -69 68 -195 -34 -227
-40 -12 -50 -12 -82 1 -41 17 -66 50 -78 101 -10 44 20 110 59 131 39 21 104
19 135 -6z m-5064 -138 c0 -14 -9 -18 -57 -26 -84 -13 -40 16 50 34 4 0 7 -3
7 -8z m6021 -13 c22 -6 39 -15 39 -20 0 -4 -3 -8 -7 -8 -19 2 -103 26 -109 33
-11 11 34 8 77 -5z m-2316 -8 c3 -6 -1 -7 -9 -4 -18 7 -21 14 -7 14 6 0 13 -4
16 -10z m55 -21 c0 -6 -4 -7 -10 -4 -5 3 -10 11 -10 16 0 6 5 7 10 4 6 -3 10
-11 10 -16z m415 -19 c4 -6 -5 -10 -19 -10 -14 0 -26 5 -26 10 0 6 9 10 19 10
11 0 23 -4 26 -10z m459 -58 c3 -5 -1 -9 -9 -9 -8 0 -12 4 -9 9 3 4 7 8 9 8 2
0 6 -4 9 -8z m-71 -9 c-7 -2 -19 -2 -25 0 -7 3 -2 5 12 5 14 0 19 -2 13 -5z
m-1009 -102 c20 -13 49 -44 64 -69 23 -40 27 -58 26 -117 -1 -100 -35 -155
-116 -190 -158 -65 -313 90 -263 263 39 131 173 184 289 113z m2225 -185 c-3
-3 -11 5 -18 17 -13 21 -12 21 5 5 10 -10 16 -20 13 -22z m-4584 -14 c-3 -3
-11 0 -18 7 -9 10 -8 11 6 5 10 -3 15 -9 12 -12z m90 -52 c3 -6 -1 -7 -9 -4
-18 7 -21 14 -7 14 6 0 13 -4 16 -10z m-105 -193 c51 -24 88 -47 82 -51 -6 -3
-17 1 -26 9 -8 9 -18 16 -21 16 -2 0 -26 9 -52 21 -27 12 -50 22 -53 22 -3 1
-14 7 -25 13 -45 28 8 10 95 -30z m-245 13 c3 -5 1 -10 -4 -10 -6 0 -11 5 -11
10 0 6 2 10 4 10 3 0 8 -4 11 -10z m-5 -110 c0 -5 -5 -10 -11 -10 -5 0 -7 5
-4 10 3 6 8 10 11 10 2 0 4 -4 4 -10z m77 -126 c-3 -3 -12 -4 -19 -1 -8 3 -5
6 6 6 11 1 17 -2 13 -5z m215 -395 c23 -13 23 -26 -1 -39 -44 -23 -155 -2
-149 29 6 29 102 35 150 10z m-107 -157 c350 -156 741 -326 1060 -461 468
-199 460 -195 461 -218 1 -11 5 -27 9 -34 7 -11 6 -12 -6 -3 -8 6 -22 12 -31
13 -10 1 -27 2 -38 3 -11 1 -20 8 -20 16 0 7 -5 10 -10 7 -6 -4 -8 -12 -4 -18
3 -7 -1 -4 -9 5 -11 14 -16 15 -26 5 -10 -9 -11 -8 -5 7 5 13 4 17 -4 12 -7
-4 -12 -1 -13 6 0 9 -2 10 -5 1 -7 -17 -34 -4 -34 16 0 9 -3 12 -8 6 -12 -17
-42 -17 -48 0 -4 9 -12 14 -20 11 -7 -3 -14 -1 -16 4 -2 4 -12 10 -23 12 -11
1 -22 6 -25 9 -3 3 -31 13 -63 23 -32 10 -61 24 -63 30 -3 7 -17 12 -32 11
-15 0 -38 7 -51 17 -13 10 -27 15 -32 12 -5 -3 -9 0 -9 6 0 6 -5 8 -10 5 -6
-3 -13 1 -16 10 -5 12 -9 13 -20 4 -12 -9 -13 -9 -9 4 5 12 -7 19 -52 32 -32
9 -62 17 -68 19 -5 2 -13 3 -16 2 -4 0 -15 6 -25 14 -33 26 -81 50 -103 50
-13 0 -25 9 -31 23 -8 20 -9 21 -10 2 -1 -17 -3 -17 -11 5 -7 18 -12 21 -18
11 -6 -9 -10 -7 -14 8 -5 22 -27 29 -27 9 0 -6 -8 -1 -19 10 -10 12 -28 22
-40 22 -11 0 -21 5 -21 10 0 6 -3 9 -7 9 -18 -3 -36 2 -30 8 9 8 -40 33 -65
33 -11 0 -16 4 -12 11 4 8 0 9 -15 4 -15 -4 -23 -1 -27 10 -6 13 -8 14 -15 3
-6 -9 -9 -6 -9 11 0 24 0 24 -15 5 -12 -16 -14 -16 -15 -3 0 9 -13 22 -30 29
-16 7 -30 17 -30 22 0 6 -6 8 -14 5 -8 -3 -17 1 -20 8 -3 9 -12 12 -22 8 -12
-4 -15 -3 -10 5 4 7 2 12 -3 12 -6 0 -11 -6 -12 -12 0 -7 -4 -3 -9 10 -5 12
-14 22 -19 22 -5 0 -22 5 -38 11 -15 6 -30 10 -32 9 -2 -1 -8 5 -13 14 -5 8
-15 13 -23 10 -8 -4 -15 -2 -15 4 0 5 -16 17 -36 27 -28 13 -33 19 -23 26 9 7
5 7 -13 3 -18 -4 -28 -2 -28 6 0 6 -4 9 -9 5 -6 -3 -14 3 -20 12 -6 10 -11 15
-11 10 0 -7 -73 27 -94 44 -6 5 -20 16 -31 24 -22 17 47 -13 340 -143z m720
-106 c62 -26 38 -56 -46 -56 -40 0 -99 18 -99 30 0 34 88 49 145 26z m550
-226 c31 -12 43 -39 24 -51 -39 -25 -191 3 -173 32 16 27 100 37 149 19z m465
-172 c0 -5 -9 -8 -19 -8 -11 0 -22 3 -24 8 -3 4 6 7 19 7 13 0 24 -3 24 -7z
m-190 -188 c0 -5 -2 -10 -4 -10 -3 0 -8 5 -11 10 -3 6 -1 10 4 10 6 0 11 -4
11 -10z"/>
<path d="M4740 5301 c-26 -50 -1 -101 50 -101 50 0 79 69 44 104 -22 23 -81
21 -94 -3z"/>
<path d="M6097 5222 c-23 -25 -21 -58 3 -82 42 -42 100 -7 100 60 0 36 -1 36
-43 38 -32 2 -48 -2 -60 -16z"/>
<path d="M980 4905 c0 -8 7 -15 15 -15 9 0 12 6 9 15 -4 8 -10 15 -15 15 -5 0
-9 -7 -9 -15z"/>
<path d="M975 4870 c4 -6 11 -8 16 -5 14 9 11 15 -7 15 -8 0 -12 -5 -9 -10z"/>
<path d="M1045 4921 c-8 -13 5 -61 16 -61 12 0 12 57 0 65 -5 3 -12 1 -16 -4z"/>
<path d="M6062 4737 c-9 -11 -10 -17 -2 -22 15 -9 23 -1 18 21 -3 15 -4 16
-16 1z"/>
<path d="M6020 3990 c0 -5 5 -10 10 -10 6 0 10 5 10 10 0 6 -4 10 -10 10 -5 0
-10 -4 -10 -10z"/>
<path d="M974 4536 c-8 -21 -1 -49 14 -54 8 -2 12 7 12 27 0 33 -17 51 -26 27z"/>
<path d="M1045 4530 c-9 -14 4 -52 16 -45 12 8 12 55 0 55 -6 0 -13 -5 -16
-10z"/>
<path d="M960 4141 c0 -17 5 -31 10 -31 6 0 10 11 10 24 0 14 -4 28 -10 31 -6
4 -10 -7 -10 -24z"/>
<path d="M1037 4163 c-4 -3 -7 -17 -7 -30 0 -28 26 -31 35 -3 9 30 -10 52 -28
33z"/>
<path d="M3632 3735 c2 -14 8 -26 13 -26 6 0 11 12 13 26 2 18 -1 25 -13 25
-12 0 -15 -7 -13 -25z"/>
<path d="M1744 3757 c-7 -20 -2 -47 11 -50 14 -3 19 43 6 56 -7 7 -12 6 -17
-6z"/>
<path d="M2113 3733 c1 -16 7 -27 12 -25 6 1 10 7 9 12 -1 6 -2 17 -2 25 -3
28 -21 15 -19 -12z"/>
<path d="M2470 3736 c0 -30 15 -42 24 -20 10 27 7 44 -9 44 -9 0 -15 -9 -15
-24z"/>
<path d="M4020 3730 c0 -21 4 -30 13 -27 6 2 12 14 12 27 0 13 -6 25 -12 28
-9 2 -13 -7 -13 -28z"/>
<path d="M4400 3735 c0 -14 5 -25 10 -25 6 0 10 11 10 25 0 14 -4 25 -10 25
-5 0 -10 -11 -10 -25z"/>
<path d="M4790 3736 c0 -30 15 -42 24 -20 10 27 7 44 -9 44 -9 0 -15 -9 -15
-24z"/>
<path d="M5154 3757 c-7 -20 -2 -47 11 -50 14 -3 19 43 6 56 -7 7 -12 6 -17
-6z"/>
<path d="M5470 3736 c0 -14 4 -27 9 -31 12 -7 25 31 16 45 -11 18 -25 10 -25
-14z"/>
<path d="M1851 3356 c-7 -8 -11 -27 -9 -43 6 -53 68 -37 68 17 0 38 -36 53
-59 26z m39 -35 c0 -11 -4 -22 -9 -25 -5 -3 -8 5 -7 19 1 29 16 34 16 6z"/>
<path d="M5006 3284 c-8 -20 12 -56 27 -51 7 2 13 18 15 35 3 26 0 32 -16 32
-11 0 -23 -7 -26 -16z m29 -24 c-5 -8 -11 -8 -17 -2 -6 6 -7 16 -3 22 5 8 11
8 17 2 6 -6 7 -16 3 -22z"/>
<path d="M4631 2914 c0 -11 3 -14 6 -6 3 7 2 16 -1 19 -3 4 -6 -2 -5 -13z"/>
<path d="M5230 2870 c0 -5 5 -10 10 -10 6 0 10 5 10 10 0 6 -4 10 -10 10 -5 0
-10 -4 -10 -10z"/>
<path d="M5295 2850 c-3 -5 -1 -10 4 -10 6 0 11 5 11 10 0 6 -2 10 -4 10 -3 0
-8 -4 -11 -10z"/>
<path d="M2690 2798 c0 -4 4 -8 9 -8 6 0 12 4 15 8 3 5 -1 9 -9 9 -8 0 -15 -4
-15 -9z"/>
<path d="M2573 2653 c9 -2 25 -2 35 0 9 3 1 5 -18 5 -19 0 -27 -2 -17 -5z"/>
<path d="M6340 2620 c0 -5 5 -10 10 -10 6 0 10 5 10 10 0 6 -4 10 -10 10 -5 0
-10 -4 -10 -10z"/>
<path d="M2317 2614 c-14 -15 -6 -19 33 -20 26 -1 39 3 37 10 -4 13 -59 21
-70 10z"/>
<path d="M3498 1578 c24 -11 46 -17 49 -14 7 7 -60 36 -79 35 -7 0 7 -10 30
-21z"/>
<path d="M3604 1536 c11 -9 24 -16 30 -16 12 0 7 5 -24 19 -24 11 -24 11 -6
-3z"/>
<path d="M3680 1503 c54 -28 90 -43 90 -38 0 7 -71 41 -100 49 -17 5 -14 1 10
-11z"/>
<path d="M3850 1430 c8 -5 20 -10 25 -10 6 0 3 5 -5 10 -8 5 -19 10 -25 10 -5
0 -3 -5 5 -10z"/>
<path d="M3767 1053 c-4 -3 -7 -11 -7 -17 0 -6 5 -5 12 2 6 6 9 14 7 17 -3 3
-9 2 -12 -2z"/>
<path d="M4380 3052 c0 -4 14 -18 30 -30 17 -13 30 -19 30 -14 0 4 -13 18 -30
30 -16 13 -30 19 -30 14z"/>
<path d="M5784 3060 c-17 -7 -22 -17 -22 -53 -1 -48 15 -71 42 -61 22 9 20 35
-4 41 -11 3 -20 13 -20 22 0 14 2 14 10 1 8 -13 10 -13 10 2 0 9 -5 20 -11 23
-6 5 -4 12 8 21 21 15 17 16 -13 4z"/>
<path d="M5830 3055 c-11 -13 -11 -22 4 -51 17 -38 40 -42 60 -12 27 43 -32
101 -64 63z m46 -62 c-10 -26 -18 -8 -9 23 5 21 8 24 11 11 2 -10 1 -25 -2
-34z"/>
<path d="M4227 2662 c-25 -27 -22 -78 5 -96 21 -15 21 -16 4 -35 -56 -61 59
-108 121 -49 26 24 31 73 8 82 -10 4 -13 14 -9 36 10 49 -17 80 -70 80 -29 0
-48 -6 -59 -18z m82 -26 c16 -20 3 -46 -24 -46 -24 0 -42 30 -30 50 9 14 41
12 54 -4z m17 -102 c8 -30 -6 -47 -32 -42 -23 4 -31 47 -12 59 23 15 37 10 44
-17z"/>
</g>
</svg>
